<?xml version="1.0" encoding="UTF-8" standalone="no"?>
<!-- Created with Inkscape (http://www.inkscape.org/) -->

<svg
   xmlns:dc="http://purl.org/dc/elements/1.1/"
   xmlns:cc="http://creativecommons.org/ns#"
   xmlns:rdf="http://www.w3.org/1999/02/22-rdf-syntax-ns#"
   xmlns:svg="http://www.w3.org/2000/svg"
   xmlns="http://www.w3.org/2000/svg"
   xmlns:sodipodi="http://sodipodi.sourceforge.net/DTD/sodipodi-0.dtd"
   xmlns:inkscape="http://www.inkscape.org/namespaces/inkscape"
   width="250.47514mm"
   height="102.30848mm"
   viewBox="0 0 250.47514 102.30848"
   version="1.1"
   id="svg8"
   inkscape:version="0.92.0 r"
   sodipodi:docname="microservices.svg">
  <defs
     id="defs2" />
  <sodipodi:namedview
     id="base"
     pagecolor="#ffffff"
     bordercolor="#666666"
     borderopacity="1.0"
     inkscape:pageopacity="0.0"
     inkscape:pageshadow="2"
     inkscape:zoom="0.7"
     inkscape:cx="279.42744"
     inkscape:cy="305.65719"
     inkscape:document-units="mm"
     inkscape:current-layer="layer1"
     showgrid="false"
     inkscape:window-width="2560"
     inkscape:window-height="1600"
     inkscape:window-x="0"
     inkscape:window-y="0"
     inkscape:window-maximized="0"
     fit-margin-top="0"
     fit-margin-left="0"
     fit-margin-right="0"
     fit-margin-bottom="0" />
  <metadata
     id="metadata5">
    <rdf:RDF>
      <cc:Work
         rdf:about="">
        <dc:format>image/svg+xml</dc:format>
        <dc:type
           rdf:resource="http://purl.org/dc/dcmitype/StillImage" />
        <dc:title></dc:title>
      </cc:Work>
    </rdf:RDF>
  </metadata>
  <g
     inkscape:label="Layer 1"
     inkscape:groupmode="layer"
     id="layer1"
     transform="translate(89.00682,-32.34417)">
    <path
       inkscape:connector-curvature="0"
       d="m -37.852582,134.65265 c -28.206758,0 -51.154238,-22.94748 -51.154238,-51.151929 0,-28.206759 22.94748,-51.156551 51.154238,-51.156551 28.2067591,0 51.154239,22.94748 51.154239,51.156551 0,28.209069 -22.9474799,51.151929 -51.154239,51.151929 z m 0,-98.839298 c -26.29177,0 -47.685056,21.393286 -47.685056,47.687369 0,26.294079 21.393286,47.687369 47.685056,47.687369 26.291771,0 47.6850571,-21.39329 47.6850571,-47.687369 0,-26.294083 -21.3932861,-47.687369 -47.6850571,-47.687369 z"
       id="path4744"
       style="stroke-width:2.31278777" />
    <g
       id="g5480"
       transform="matrix(1.5717427,0,0,1.5717427,19.437053,-47.741589)">
      <path
         style="stroke-width:2.31278777"
         id="path4746"
         d="m -37.852582,103.11547 c -10.814595,0 -19.612439,-8.800154 -19.612439,-19.612436 0,-10.814595 8.797844,-19.614753 19.612439,-19.614753 10.816908,0 19.614753,8.800158 19.614753,19.614753 0,0.957494 -0.777097,1.734591 -1.734591,1.734591 -0.957494,0 -1.734591,-0.777097 -1.734591,-1.734591 0,-8.90192 -7.245964,-16.145571 -16.145571,-16.145571 -8.90192,0 -16.143258,7.243651 -16.143258,16.145571 0,8.90192 7.241338,16.143258 16.143258,16.143258 0.957494,0 1.734591,0.777098 1.734591,1.734588 0,0.9575 -0.777097,1.73459 -1.734591,1.73459 z"
         inkscape:connector-curvature="0" />
      <g
         transform="matrix(2.3127877,0,0,2.3127877,-89.00682,32.34417)"
         id="g4750">
        <path
           id="path4748"
           d="m 29.85,24.009 c -0.192,0 -0.384,-0.073 -0.531,-0.219 l -3.332,-3.327 c -0.293,-0.292 -0.293,-0.768 -0.002,-1.061 0.293,-0.294 0.768,-0.294 1.062,-0.001 l 3.333,3.327 c 0.293,0.292 0.293,0.768 0.001,1.061 -0.149,0.147 -0.339,0.22 -0.531,0.22 z"
           inkscape:connector-curvature="0" />
      </g>
      <g
         transform="matrix(2.3127877,0,0,2.3127877,-89.00682,32.34417)"
         id="g4754">
        <path
           id="path4752"
           d="m 29.85,24.009 c -0.192,0 -0.385,-0.073 -0.531,-0.22 -0.293,-0.293 -0.293,-0.768 0,-1.061 l 3.334,-3.327 c 0.293,-0.292 0.768,-0.292 1.061,0.001 0.292,0.293 0.292,0.768 -10e-4,1.061 L 30.38,23.79 c -0.148,0.146 -0.339,0.219 -0.53,0.219 z"
           inkscape:connector-curvature="0" />
      </g>
    </g>
    <path
       id="path4822"
       d="m 110.31409,134.65265 c -28.206756,0 -51.154236,-22.94748 -51.154236,-51.151929 0,-28.206759 22.94748,-51.156551 51.154236,-51.156551 28.20676,0 51.15424,22.94748 51.15424,51.156551 0,28.209069 -22.94748,51.151929 -51.15424,51.151929 z m 0,-98.839298 c -26.291768,0 -47.685054,21.393286 -47.685054,47.687369 0,26.294079 21.393286,47.687369 47.685054,47.687369 26.29177,0 47.68506,-21.39329 47.68506,-47.687369 0,-26.294083 -21.39329,-47.687369 -47.68506,-47.687369 z"
       inkscape:connector-curvature="0"
       style="stroke-width:2.31278777" />
    <g
       id="g5428"
       transform="matrix(0.85170525,0,0,0.85170525,91.150316,-101.63062)">
      <g
         id="g5437"
         transform="matrix(0.74709783,0,0,0.74709783,5.133787,50.835019)">
        <path
           sodipodi:type="star"
           style="fill:#000000;fill-opacity:1;stroke-width:0.15135673"
           id="path5403"
           sodipodi:sides="6"
           sodipodi:cx="-13.796129"
           sodipodi:cy="201.73291"
           sodipodi:r1="19.205633"
           sodipodi:r2="22.235819"
           sodipodi:arg1="-1.6095999"
           sodipodi:arg2="-1.0276701"
           inkscape:flatsided="false"
           inkscape:rounded="0.0094664047"
           inkscape:randomized="0"
           d="m -14.541189,182.54173 c 0.115826,0.002 12.1343616,0.10117 12.2368615,0.15516 0.083745,0.0441 4.7099991,8.71231 4.755714,8.79519 0.055953,0.10144 5.9795681,10.55925 5.9840638,10.67501 0.00367,0.0946 -5.1900857,8.43514 -5.2390036,8.51617 -0.059873,0.0992 -6.154794,10.45808 -6.2527982,10.51985 -0.080072,0.0505 -9.9000845,-0.27717 -9.9947175,-0.27902 -0.115826,-0.002 -12.134362,-0.10117 -12.236862,-0.15516 -0.08375,-0.0441 -4.709999,-8.71231 -4.755714,-8.79519 -0.05595,-0.10144 -5.979568,-10.55925 -5.984064,-10.67501 -0.0037,-0.0946 5.190086,-8.43514 5.239004,-8.51617 0.05987,-0.0992 6.154794,-10.45808 6.252798,-10.51985 0.08007,-0.0505 9.900085,0.27718 9.994718,0.27902 z"
           inkscape:transform-center-x="-2.2144422e-06"
           inkscape:transform-center-y="-2.1737268" />
        <path
           inkscape:transform-center-y="-2.1737268"
           inkscape:transform-center-x="-2.2144422e-06"
           d="m 22.500477,161.37505 c 0.115826,0.002 12.134362,0.10116 12.236862,0.15515 0.08374,0.0441 4.709999,8.71232 4.755714,8.79519 0.05595,0.10144 5.979568,10.55925 5.984063,10.67501 0.0037,0.0946 -5.190085,8.43514 -5.239003,8.51617 -0.05987,0.0992 -6.154794,10.45808 -6.252798,10.51986 -0.08007,0.0505 -9.900085,-0.27718 -9.994718,-0.27903 -0.115826,-0.002 -12.134362,-0.10117 -12.236862,-0.15515 -0.08375,-0.0441 -4.709999,-8.71232 -4.7557139,-8.7952 -0.055953,-0.10144 -5.9795681,-10.55925 -5.9840638,-10.67501 -0.00367,-0.0946 5.1900857,-8.43513 5.2390036,-8.51616 0.059873,-0.0992 6.1547941,-10.45809 6.2527981,-10.51986 0.08007,-0.0505 9.900085,0.27718 9.994718,0.27903 z"
           inkscape:randomized="0"
           inkscape:rounded="0.0094664047"
           inkscape:flatsided="false"
           sodipodi:arg2="-1.0276701"
           sodipodi:arg1="-1.6095999"
           sodipodi:r2="22.235819"
           sodipodi:r1="19.205633"
           sodipodi:cy="180.56622"
           sodipodi:cx="23.245537"
           sodipodi:sides="6"
           id="path5409"
           style="fill:#000000;fill-opacity:1;stroke-width:0.15135673"
           sodipodi:type="star" />
        <path
           sodipodi:type="star"
           style="fill:#000000;fill-opacity:1;stroke-width:0.15135673"
           id="path5411"
           sodipodi:sides="6"
           sodipodi:cx="23.245537"
           sodipodi:cy="222.89957"
           sodipodi:r1="19.205633"
           sodipodi:r2="22.235819"
           sodipodi:arg1="-1.6095999"
           sodipodi:arg2="-1.0276701"
           inkscape:flatsided="false"
           inkscape:rounded="0.0094664047"
           inkscape:randomized="0"
           d="m 22.500477,203.70839 c 0.115826,0.002 12.134362,0.10117 12.236862,0.15515 0.08374,0.0441 4.709999,8.71232 4.755714,8.7952 0.05595,0.10144 5.979568,10.55925 5.984063,10.67501 0.0037,0.0946 -5.190085,8.43513 -5.239003,8.51616 -0.05987,0.0992 -6.154794,10.45809 -6.252798,10.51986 -0.08007,0.0505 -9.900085,-0.27718 -9.994718,-0.27903 -0.115826,-0.002 -12.134362,-0.10116 -12.236862,-0.15515 -0.08375,-0.0441 -4.709999,-8.71232 -4.7557139,-8.79519 -0.055953,-0.10144 -5.9795681,-10.55925 -5.9840638,-10.67501 -0.00367,-0.0946 5.1900857,-8.43514 5.2390036,-8.51617 0.059873,-0.0992 6.1547941,-10.45808 6.2527981,-10.51986 0.08007,-0.0505 9.900085,0.27718 9.994718,0.27903 z"
           inkscape:transform-center-x="-2.2144422e-06"
           inkscape:transform-center-y="-2.1737268" />
        <path
           inkscape:transform-center-y="-2.1737268"
           inkscape:transform-center-x="-2.2144422e-06"
           d="m 22.500477,246.0417 c 0.115826,0.002 12.134362,0.10117 12.236862,0.15516 0.08374,0.0441 4.709999,8.71231 4.755714,8.79519 0.05595,0.10144 5.979568,10.55925 5.984063,10.67501 0.0037,0.0946 -5.190085,8.43514 -5.239003,8.51617 -0.05987,0.0992 -6.154794,10.45808 -6.252798,10.51985 -0.08007,0.0505 -9.900085,-0.27718 -9.994718,-0.27902 -0.115826,-0.002 -12.134362,-0.10117 -12.236862,-0.15516 -0.08375,-0.0441 -4.709999,-8.71231 -4.7557139,-8.79519 -0.055953,-0.10144 -5.9795681,-10.55925 -5.9840638,-10.67501 -0.00367,-0.0946 5.1900857,-8.43514 5.2390036,-8.51617 0.059873,-0.0992 6.1547941,-10.45808 6.2527981,-10.51985 0.08007,-0.0505 9.900085,0.27717 9.994718,0.27902 z"
           inkscape:randomized="0"
           inkscape:rounded="0.0094664047"
           inkscape:flatsided="false"
           sodipodi:arg2="-1.0276701"
           sodipodi:arg1="-1.6095999"
           sodipodi:r2="22.235819"
           sodipodi:r1="19.205633"
           sodipodi:cy="265.23288"
           sodipodi:cx="23.245537"
           sodipodi:sides="6"
           id="path5413"
           style="fill:#000000;fill-opacity:1;stroke-width:0.15135673"
           sodipodi:type="star" />
        <path
           sodipodi:type="star"
           style="fill:#000000;fill-opacity:1;stroke-width:0.15135673"
           id="path5415"
           sodipodi:sides="6"
           sodipodi:cx="-13.79613"
           sodipodi:cy="244.06622"
           sodipodi:r1="19.205633"
           sodipodi:r2="22.235819"
           sodipodi:arg1="-1.6095999"
           sodipodi:arg2="-1.0276701"
           inkscape:flatsided="false"
           inkscape:rounded="0.0094664047"
           inkscape:randomized="0"
           d="m -14.54119,224.87505 c 0.115826,0.002 12.1343616,0.10116 12.2368616,0.15515 0.083745,0.0441 4.709999,8.71232 4.7557139,8.79519 0.055953,0.10144 5.9795681,10.55925 5.9840638,10.67501 0.00367,0.0946 -5.1900857,8.43514 -5.2390036,8.51617 -0.059873,0.0992 -6.1547939,10.45808 -6.2527981,10.51986 -0.080072,0.0505 -9.9000846,-0.27718 -9.9947176,-0.27903 -0.115826,-0.002 -12.134362,-0.10117 -12.236862,-0.15515 -0.08374,-0.0441 -4.709999,-8.71232 -4.755714,-8.7952 -0.05595,-0.10144 -5.979568,-10.55925 -5.984064,-10.67501 -0.0037,-0.0946 5.190086,-8.43513 5.239004,-8.51616 0.05987,-0.0992 6.154794,-10.45809 6.252798,-10.51986 0.08007,-0.0505 9.900085,0.27718 9.994718,0.27903 z"
           inkscape:transform-center-x="-2.2144422e-06"
           inkscape:transform-center-y="-2.1737268" />
        <path
           inkscape:transform-center-y="-2.1737268"
           inkscape:transform-center-x="-2.2144422e-06"
           d="m 59.542148,224.87505 c 0.115827,0.002 12.134362,0.10116 12.236862,0.15515 0.08375,0.0441 4.709999,8.71232 4.755714,8.79519 0.05595,0.10144 5.979568,10.55925 5.984064,10.67501 0.0037,0.0946 -5.190086,8.43514 -5.239004,8.51617 -0.05987,0.0992 -6.154793,10.45808 -6.252798,10.51986 -0.08007,0.0505 -9.900084,-0.27718 -9.994717,-0.27903 -0.115827,-0.002 -12.134362,-0.10117 -12.236862,-0.15515 -0.08375,-0.0441 -4.709999,-8.71232 -4.755714,-8.7952 -0.05595,-0.10144 -5.979568,-10.55925 -5.984064,-10.67501 -0.0037,-0.0946 5.190086,-8.43513 5.239004,-8.51616 0.05987,-0.0992 6.154794,-10.45809 6.252798,-10.51986 0.08007,-0.0505 9.900085,0.27718 9.994717,0.27903 z"
           inkscape:randomized="0"
           inkscape:rounded="0.0094664047"
           inkscape:flatsided="false"
           sodipodi:arg2="-1.0276701"
           sodipodi:arg1="-1.6095999"
           sodipodi:r2="22.235819"
           sodipodi:r1="19.205633"
           sodipodi:cy="244.06622"
           sodipodi:cx="60.287209"
           sodipodi:sides="6"
           id="path5417"
           style="fill:#000000;fill-opacity:1;stroke-width:0.15135673"
           sodipodi:type="star" />
        <path
           sodipodi:type="star"
           style="fill:#000000;fill-opacity:1;stroke-width:0.15135673"
           id="path5419"
           sodipodi:sides="6"
           sodipodi:cx="60.287209"
           sodipodi:cy="201.73289"
           sodipodi:r1="19.205633"
           sodipodi:r2="22.235819"
           sodipodi:arg1="-1.6095999"
           sodipodi:arg2="-1.0276701"
           inkscape:flatsided="false"
           inkscape:rounded="0.0094664047"
           inkscape:randomized="0"
           d="m 59.542148,182.54172 c 0.115827,0.002 12.134362,0.10117 12.236862,0.15515 0.08375,0.0441 4.709999,8.71232 4.755714,8.7952 0.05595,0.10144 5.979568,10.55925 5.984064,10.67501 0.0037,0.0946 -5.190086,8.43513 -5.239004,8.51616 -0.05987,0.0992 -6.154793,10.45808 -6.252798,10.51986 -0.08007,0.0505 -9.900084,-0.27718 -9.994717,-0.27903 -0.115827,-0.002 -12.134362,-0.10117 -12.236862,-0.15515 -0.08375,-0.0441 -4.709999,-8.71232 -4.755714,-8.7952 -0.05595,-0.10144 -5.979568,-10.55925 -5.984064,-10.67501 -0.0037,-0.0946 5.190086,-8.43513 5.239004,-8.51616 0.05987,-0.0992 6.154794,-10.45808 6.252798,-10.51986 0.08007,-0.0505 9.900085,0.27718 9.994717,0.27903 z"
           inkscape:transform-center-x="-2.2144422e-06"
           inkscape:transform-center-y="-2.1737268" />
      </g>
    </g>
    <g
       transform="matrix(0.32875461,0,0,0.32875461,121.49048,56.046793)"
       id="g5492"
       style="fill:#ffffff">
      <path
         inkscape:connector-curvature="0"
         d="m -37.852582,103.11547 c -10.814595,0 -19.612439,-8.800154 -19.612439,-19.612436 0,-10.814595 8.797844,-19.614753 19.612439,-19.614753 10.816908,0 19.614753,8.800158 19.614753,19.614753 0,0.957494 -0.777097,1.734591 -1.734591,1.734591 -0.957494,0 -1.734591,-0.777097 -1.734591,-1.734591 0,-8.90192 -7.245964,-16.145571 -16.145571,-16.145571 -8.90192,0 -16.143258,7.243651 -16.143258,16.145571 0,8.90192 7.241338,16.143258 16.143258,16.143258 0.957494,0 1.734591,0.777098 1.734591,1.734588 0,0.9575 -0.777097,1.73459 -1.734591,1.73459 z"
         id="path5482"
         style="fill:#ffffff;stroke-width:2.31278777" />
      <g
         id="g5486"
         transform="matrix(2.3127877,0,0,2.3127877,-89.00682,32.34417)"
         style="fill:#ffffff">
        <path
           inkscape:connector-curvature="0"
           d="m 29.85,24.009 c -0.192,0 -0.384,-0.073 -0.531,-0.219 l -3.332,-3.327 c -0.293,-0.292 -0.293,-0.768 -0.002,-1.061 0.293,-0.294 0.768,-0.294 1.062,-0.001 l 3.333,3.327 c 0.293,0.292 0.293,0.768 0.001,1.061 -0.149,0.147 -0.339,0.22 -0.531,0.22 z"
           id="path5484"
           style="fill:#ffffff" />
      </g>
      <g
         id="g5490"
         transform="matrix(2.3127877,0,0,2.3127877,-89.00682,32.34417)"
         style="fill:#ffffff">
        <path
           inkscape:connector-curvature="0"
           d="m 29.85,24.009 c -0.192,0 -0.385,-0.073 -0.531,-0.22 -0.293,-0.293 -0.293,-0.768 0,-1.061 l 3.334,-3.327 c 0.293,-0.292 0.768,-0.292 1.061,0.001 0.292,0.293 0.292,0.768 -10e-4,1.061 L 30.38,23.79 c -0.148,0.146 -0.339,0.219 -0.53,0.219 z"
           id="path5488"
           style="fill:#ffffff" />
      </g>
    </g>
    <g
       id="g5626"
       transform="matrix(0.24396645,0,0,0.24396645,103.60501,103.72633)"
       style="fill:#ffffff">
      <path
         id="path5571"
         d="M 52.354,8.51 C 51.196,4.22 42.577,0 27.5,0 12.423,0 3.803,4.22 2.646,8.51 2.562,8.657 2.5,8.818 2.5,9 V 9.5 21 21.5 22 33 33.5 34 46 c 0,0.162 0.043,0.315 0.117,0.451 C 3.798,51.346 14.364,55 27.5,55 40.606,55 51.155,51.361 52.375,46.484 52.455,46.341 52.5,46.176 52.5,46 V 34 33.5 33 22 21.5 21 9.5 9 c 0,-0.182 -0.062,-0.343 -0.146,-0.49 z m -1.933,25.475 c -0.028,0.121 -0.067,0.241 -0.116,0.363 -0.04,0.099 -0.089,0.198 -0.143,0.297 -0.067,0.123 -0.142,0.246 -0.231,0.369 -0.066,0.093 -0.141,0.185 -0.219,0.277 -0.111,0.131 -0.229,0.262 -0.363,0.392 -0.081,0.079 -0.17,0.157 -0.26,0.236 -0.164,0.143 -0.335,0.285 -0.526,0.426 -0.082,0.061 -0.17,0.12 -0.257,0.18 -0.226,0.156 -0.462,0.311 -0.721,0.463 -0.068,0.041 -0.141,0.08 -0.212,0.12 -0.298,0.168 -0.609,0.335 -0.945,0.497 -0.043,0.021 -0.088,0.041 -0.132,0.061 -0.375,0.177 -0.767,0.351 -1.186,0.519 -0.012,0.005 -0.024,0.009 -0.036,0.014 -2.271,0.907 -5.176,1.67 -8.561,2.17 -0.017,0.002 -0.034,0.004 -0.051,0.007 -0.658,0.097 -1.333,0.183 -2.026,0.259 -0.113,0.012 -0.232,0.02 -0.346,0.032 -0.605,0.063 -1.217,0.121 -1.847,0.167 -0.288,0.021 -0.59,0.031 -0.883,0.049 -0.474,0.028 -0.943,0.059 -1.429,0.076 C 29.137,40.984 28.327,41 27.5,41 26.673,41 25.863,40.984 25.068,40.956 24.582,40.939 24.113,40.907 23.639,40.88 23.346,40.863 23.044,40.852 22.756,40.831 22.126,40.785 21.514,40.727 20.909,40.664 20.795,40.652 20.676,40.644 20.563,40.632 19.87,40.556 19.195,40.469 18.537,40.373 18.52,40.371 18.503,40.369 18.486,40.366 15.101,39.866 12.196,39.103 9.925,38.196 9.913,38.192 9.901,38.187 9.889,38.182 9.47,38.014 9.077,37.84 8.703,37.663 8.66,37.642 8.614,37.622 8.571,37.602 8.235,37.44 7.924,37.274 7.626,37.105 7.556,37.065 7.482,37.026 7.414,36.985 7.155,36.833 6.919,36.678 6.693,36.522 6.607,36.462 6.518,36.403 6.436,36.342 6.245,36.201 6.074,36.059 5.91,35.916 5.821,35.838 5.731,35.76 5.65,35.68 5.516,35.55 5.398,35.42 5.287,35.288 5.209,35.196 5.134,35.104 5.068,35.011 4.98,34.888 4.905,34.765 4.837,34.642 4.783,34.543 4.735,34.444 4.694,34.345 4.645,34.224 4.606,34.103 4.578,33.982 4.541,33.823 4.5,33.661 4.5,33.5 4.5,33.387 4.513,33.274 4.531,33.162 4.556,33.011 4.542,32.86 4.5,32.717 v -7.424 c 0.028,0.026 0.063,0.051 0.092,0.077 0.218,0.192 0.44,0.383 0.69,0.567 C 9.049,28.786 16.582,31 27.5,31 c 10.872,0 18.386,-2.196 22.169,-5.028 0.302,-0.22 0.574,-0.447 0.83,-0.678 L 50.5,25.293 v 7.424 c -0.042,0.143 -0.056,0.294 -0.031,0.445 0.019,0.112 0.031,0.225 0.031,0.338 0,0.161 -0.041,0.323 -0.079,0.485 z M 50.5,13.293 v 7.424 c -0.042,0.143 -0.056,0.294 -0.031,0.445 0.019,0.112 0.031,0.225 0.031,0.338 0,0.161 -0.041,0.323 -0.079,0.485 -0.028,0.121 -0.067,0.241 -0.116,0.363 -0.04,0.099 -0.089,0.198 -0.143,0.297 -0.067,0.123 -0.142,0.246 -0.231,0.369 -0.066,0.093 -0.141,0.185 -0.219,0.277 -0.111,0.131 -0.229,0.262 -0.363,0.392 -0.081,0.079 -0.17,0.157 -0.26,0.236 -0.164,0.143 -0.335,0.285 -0.526,0.426 -0.082,0.061 -0.17,0.12 -0.257,0.18 -0.226,0.156 -0.462,0.311 -0.721,0.463 -0.068,0.041 -0.141,0.08 -0.212,0.12 -0.298,0.168 -0.609,0.335 -0.945,0.497 -0.043,0.021 -0.088,0.041 -0.132,0.061 -0.375,0.177 -0.767,0.351 -1.186,0.519 -0.012,0.005 -0.024,0.009 -0.036,0.014 -2.271,0.907 -5.176,1.67 -8.561,2.17 -0.017,0.002 -0.034,0.004 -0.051,0.007 -0.658,0.097 -1.333,0.183 -2.026,0.259 -0.113,0.012 -0.232,0.02 -0.346,0.032 -0.605,0.063 -1.217,0.121 -1.847,0.167 -0.288,0.021 -0.59,0.031 -0.883,0.049 -0.474,0.028 -0.943,0.059 -1.429,0.076 C 29.137,28.984 28.327,29 27.5,29 26.673,29 25.863,28.984 25.068,28.956 24.582,28.939 24.113,28.907 23.639,28.88 23.346,28.863 23.044,28.852 22.756,28.831 22.126,28.785 21.514,28.727 20.909,28.664 20.795,28.652 20.676,28.644 20.563,28.632 19.87,28.556 19.195,28.469 18.537,28.373 18.52,28.371 18.503,28.369 18.486,28.366 15.101,27.866 12.196,27.103 9.925,26.196 9.913,26.192 9.901,26.187 9.889,26.182 9.47,26.014 9.077,25.84 8.703,25.663 8.66,25.642 8.614,25.622 8.571,25.602 8.235,25.44 7.924,25.274 7.626,25.105 7.556,25.065 7.482,25.026 7.414,24.985 7.155,24.833 6.919,24.678 6.693,24.522 6.607,24.462 6.518,24.403 6.436,24.342 6.245,24.201 6.074,24.059 5.91,23.916 5.821,23.838 5.731,23.76 5.65,23.68 5.516,23.55 5.398,23.42 5.287,23.288 5.209,23.196 5.134,23.104 5.068,23.011 4.98,22.888 4.905,22.765 4.837,22.642 4.783,22.543 4.735,22.444 4.694,22.345 4.645,22.224 4.606,22.103 4.578,21.982 4.541,21.823 4.5,21.661 4.5,21.5 4.5,21.387 4.513,21.274 4.531,21.162 4.556,21.011 4.542,20.86 4.5,20.717 v -7.424 c 0.12,0.109 0.257,0.216 0.387,0.324 0.072,0.06 0.139,0.12 0.215,0.18 0.3,0.236 0.624,0.469 0.975,0.696 0.073,0.047 0.155,0.093 0.231,0.14 0.294,0.183 0.605,0.362 0.932,0.538 0.121,0.065 0.242,0.129 0.367,0.193 0.365,0.186 0.748,0.367 1.151,0.542 0.066,0.029 0.126,0.059 0.193,0.087 0.469,0.199 0.967,0.389 1.485,0.573 0.143,0.051 0.293,0.099 0.44,0.149 0.412,0.139 0.838,0.272 1.279,0.401 0.159,0.046 0.315,0.094 0.478,0.138 0.585,0.162 1.189,0.316 1.823,0.458 0.087,0.02 0.181,0.036 0.269,0.055 0.559,0.122 1.139,0.235 1.735,0.341 0.202,0.036 0.407,0.07 0.613,0.104 0.567,0.093 1.151,0.178 1.75,0.256 0.154,0.02 0.301,0.043 0.457,0.062 0.744,0.09 1.514,0.167 2.305,0.233 0.195,0.016 0.398,0.028 0.596,0.042 0.633,0.046 1.28,0.084 1.942,0.114 0.241,0.011 0.481,0.022 0.727,0.031 0.862,0.029 1.74,0.05 2.65,0.05 0.91,0 1.788,-0.021 2.65,-0.05 0.245,-0.009 0.485,-0.02 0.727,-0.031 0.662,-0.03 1.309,-0.068 1.942,-0.114 0.198,-0.015 0.4,-0.026 0.596,-0.042 0.791,-0.065 1.561,-0.143 2.305,-0.233 0.156,-0.019 0.303,-0.042 0.457,-0.062 0.599,-0.078 1.182,-0.163 1.75,-0.256 0.206,-0.034 0.411,-0.068 0.613,-0.104 0.596,-0.106 1.176,-0.219 1.735,-0.341 0.088,-0.019 0.182,-0.036 0.269,-0.055 0.634,-0.142 1.238,-0.297 1.823,-0.458 0.163,-0.045 0.319,-0.092 0.478,-0.138 0.441,-0.129 0.867,-0.262 1.279,-0.401 0.147,-0.05 0.297,-0.098 0.44,-0.149 0.518,-0.184 1.017,-0.374 1.485,-0.573 0.067,-0.028 0.127,-0.058 0.193,-0.087 0.403,-0.176 0.786,-0.356 1.151,-0.542 0.125,-0.064 0.247,-0.128 0.367,-0.193 0.327,-0.175 0.638,-0.354 0.932,-0.538 0.076,-0.047 0.158,-0.093 0.231,-0.14 0.351,-0.227 0.675,-0.459 0.975,-0.696 0.075,-0.06 0.142,-0.12 0.215,-0.18 0.13,-0.108 0.267,-0.215 0.387,-0.324 z M 27.5,2 c 13.555,0 23,3.952 23,7.5 0,3.548 -9.445,7.5 -23,7.5 C 13.945,17 4.5,13.048 4.5,9.5 4.5,5.952 13.945,2 27.5,2 Z m 23,43.703 c -0.014,0.044 -0.024,0.089 -0.032,0.135 C 49.901,49.297 40.536,53 27.5,53 14.464,53 5.099,49.297 4.532,45.838 4.524,45.793 4.513,45.749 4.5,45.707 v -8.414 c 0.028,0.026 0.063,0.051 0.092,0.077 0.218,0.192 0.44,0.383 0.69,0.567 C 9.049,40.786 16.582,43 27.5,43 c 10.872,0 18.386,-2.196 22.169,-5.028 0.302,-0.22 0.574,-0.447 0.83,-0.678 L 50.5,37.293 Z"
         inkscape:connector-curvature="0"
         style="fill:#ffffff" />
      <g
         id="g5573"
         style="fill:#ffffff" />
      <g
         id="g5575"
         style="fill:#ffffff" />
      <g
         id="g5577"
         style="fill:#ffffff" />
      <g
         id="g5579"
         style="fill:#ffffff" />
      <g
         id="g5581"
         style="fill:#ffffff" />
      <g
         id="g5583"
         style="fill:#ffffff" />
      <g
         id="g5585"
         style="fill:#ffffff" />
      <g
         id="g5587"
         style="fill:#ffffff" />
      <g
         id="g5589"
         style="fill:#ffffff" />
      <g
         id="g5591"
         style="fill:#ffffff" />
      <g
         id="g5593"
         style="fill:#ffffff" />
      <g
         id="g5595"
         style="fill:#ffffff" />
      <g
         id="g5597"
         style="fill:#ffffff" />
      <g
         id="g5599"
         style="fill:#ffffff" />
      <g
         id="g5601"
         style="fill:#ffffff" />
    </g>
    <g
       id="g5775"
       transform="matrix(0.02770667,0,0,0.02770667,80.112583,90.335295)"
       style="fill:#ffffff">
      <g
         id="g5717"
         style="fill:#ffffff">
        <g
           id="g5715"
           style="fill:#ffffff">
          <path
             id="path5711"
             d="m 454.2,189.101 -33.6,-5.7 c -3.5,-11.3 -8,-22.2 -13.5,-32.6 l 19.8,-27.7 c 8.4,-11.8 7.1,-27.9 -3.2,-38.1 l -29.8,-29.8 c -5.6,-5.6 -13,-8.7 -20.9,-8.7 -6.2,0 -12.1,1.9 -17.1,5.5 l -27.8,19.8 c -10.8,-5.7 -22.1,-10.4 -33.8,-13.9 l -5.6,-33.2 c -2.4,-14.3 -14.7,-24.7 -29.2,-24.7 h -42.1 c -14.5,0 -26.8,10.4 -29.2,24.7 l -5.8,34 c -11.2,3.5 -22.1,8.1 -32.5,13.7 l -27.5,-19.8 c -5,-3.6 -11,-5.5 -17.2,-5.5 -7.9,0 -15.4,3.1 -20.9,8.7 l -29.9,29.8 c -10.2,10.2 -11.6,26.3 -3.2,38.1 l 20,28.1 c -5.5,10.5 -9.9,21.4 -13.3,32.7 l -33.2,5.6 c -14.3,2.4 -24.7,14.7 -24.7,29.2 v 42.1 c 0,14.5 10.4,26.8 24.7,29.2 l 34,5.8 c 3.5,11.2 8.1,22.1 13.7,32.5 l -19.7,27.4 c -8.4,11.8 -7.1,27.9 3.2,38.1 l 29.8,29.8 c 5.6,5.6 13,8.7 20.9,8.7 6.2,0 12.1,-1.9 17.1,-5.5 l 28.1,-20 c 10.1,5.3 20.7,9.6 31.6,13 l 5.6,33.6 c 2.4,14.3 14.7,24.7 29.2,24.7 h 42.2 c 14.5,0 26.8,-10.4 29.2,-24.7 l 5.7,-33.6 c 11.3,-3.5 22.2,-8 32.6,-13.5 l 27.7,19.8 c 5,3.6 11,5.5 17.2,5.5 v 0 c 7.9,0 15.3,-3.1 20.9,-8.7 l 29.8,-29.8 c 10.2,-10.2 11.6,-26.3 3.2,-38.1 l -19.8,-27.8 c 5.5,-10.5 10.1,-21.4 13.5,-32.6 l 33.6,-5.6 c 14.3,-2.4 24.7,-14.7 24.7,-29.2 v -42.1 c 0.2,-14.5 -10.2,-26.8 -24.5,-29.2 z m -2.3,71.3 c 0,1.3 -0.9,2.4 -2.2,2.6 l -42,7 c -5.3,0.9 -9.5,4.8 -10.8,9.9 -3.8,14.7 -9.6,28.8 -17.4,41.9 -2.7,4.6 -2.5,10.3 0.6,14.7 l 24.7,34.8 c 0.7,1 0.6,2.5 -0.3,3.4 l -29.8,29.8 c -0.7,0.7 -1.4,0.8 -1.9,0.8 -0.6,0 -1.1,-0.2 -1.5,-0.5 l -34.7,-24.7 c -4.3,-3.1 -10.1,-3.3 -14.7,-0.6 -13.1,7.8 -27.2,13.6 -41.9,17.4 -5.2,1.3 -9.1,5.6 -9.9,10.8 l -7.1,42 c -0.2,1.3 -1.3,2.2 -2.6,2.2 h -42.1 c -1.3,0 -2.4,-0.9 -2.6,-2.2 l -7,-42 c -0.9,-5.3 -4.8,-9.5 -9.9,-10.8 -14.3,-3.7 -28.1,-9.4 -41,-16.8 -2.1,-1.2 -4.5,-1.8 -6.8,-1.8 -2.7,0 -5.5,0.8 -7.8,2.5 l -35,24.9 c -0.5,0.3 -1,0.5 -1.5,0.5 -0.4,0 -1.2,-0.1 -1.9,-0.8 L 75,375.601 c -0.9,-0.9 -1,-2.3 -0.3,-3.4 l 24.6,-34.5 c 3.1,-4.4 3.3,-10.2 0.6,-14.8 -7.8,-13 -13.8,-27.1 -17.6,-41.8 -1.4,-5.1 -5.6,-9 -10.8,-9.9 l -42.3,-7.2 c -1.3,-0.2 -2.2,-1.3 -2.2,-2.6 v -42.1 c 0,-1.3 0.9,-2.4 2.2,-2.6 l 41.7,-7 c 5.3,-0.9 9.6,-4.8 10.9,-10 3.7,-14.7 9.4,-28.9 17.1,-42 2.7,-4.6 2.4,-10.3 -0.7,-14.6 l -24.9,-35 c -0.7,-1 -0.6,-2.5 0.3,-3.4 l 29.8,-29.8 c 0.7,-0.7 1.4,-0.8 1.9,-0.8 0.6,0 1.1,0.2 1.5,0.5 l 34.5,24.6 c 4.4,3.1 10.2,3.3 14.8,0.6 13,-7.8 27.1,-13.8 41.8,-17.6 5.1,-1.4 9,-5.6 9.9,-10.8 l 7.2,-42.3 c 0.2,-1.3 1.3,-2.2 2.6,-2.2 h 42.1 c 1.3,0 2.4,0.9 2.6,2.2 l 7,41.7 c 0.9,5.3 4.8,9.6 10,10.9 15.1,3.8 29.5,9.7 42.9,17.6 4.6,2.7 10.3,2.5 14.7,-0.6 l 34.5,-24.8 c 0.5,-0.3 1,-0.5 1.5,-0.5 0.4,0 1.2,0.1 1.9,0.8 l 29.8,29.8 c 0.9,0.9 1,2.3 0.3,3.4 l -24.7,34.7 c -3.1,4.3 -3.3,10.1 -0.6,14.7 7.8,13.1 13.6,27.2 17.4,41.9 1.3,5.2 5.6,9.1 10.8,9.9 l 42,7.1 c 1.3,0.2 2.2,1.3 2.2,2.6 v 42.1 z"
             inkscape:connector-curvature="0"
             style="fill:#ffffff" />
          <path
             id="path5713"
             d="m 239.4,136.001 c -57,0 -103.3,46.3 -103.3,103.3 0,57 46.3,103.3 103.3,103.3 57,0 103.3,-46.3 103.3,-103.3 0,-57 -46.3,-103.3 -103.3,-103.3 z m 0,179.6 c -42.1,0 -76.3,-34.2 -76.3,-76.3 0,-42.1 34.2,-76.3 76.3,-76.3 42.1,0 76.3,34.2 76.3,76.3 0,42.1 -34.2,76.3 -76.3,76.3 z"
             inkscape:connector-curvature="0"
             style="fill:#ffffff" />
        </g>
      </g>
      <g
         id="g5719"
         style="fill:#ffffff" />
      <g
         id="g5721"
         style="fill:#ffffff" />
      <g
         id="g5723"
         style="fill:#ffffff" />
      <g
         id="g5725"
         style="fill:#ffffff" />
      <g
         id="g5727"
         style="fill:#ffffff" />
      <g
         id="g5729"
         style="fill:#ffffff" />
      <g
         id="g5731"
         style="fill:#ffffff" />
      <g
         id="g5733"
         style="fill:#ffffff" />
      <g
         id="g5735"
         style="fill:#ffffff" />
      <g
         id="g5737"
         style="fill:#ffffff" />
      <g
         id="g5739"
         style="fill:#ffffff" />
      <g
         id="g5741"
         style="fill:#ffffff" />
      <g
         id="g5743"
         style="fill:#ffffff" />
      <g
         id="g5745"
         style="fill:#ffffff" />
      <g
         id="g5747"
         style="fill:#ffffff" />
    </g>
    <g
       style="fill:#ffffff"
       transform="matrix(0.02770667,0,0,0.02770667,127.25234,63.398296)"
       id="g5815">
      <g
         style="fill:#ffffff"
         id="g5783">
        <g
           style="fill:#ffffff"
           id="g5781">
          <path
             style="fill:#ffffff"
             inkscape:connector-curvature="0"
             d="m 454.2,189.101 -33.6,-5.7 c -3.5,-11.3 -8,-22.2 -13.5,-32.6 l 19.8,-27.7 c 8.4,-11.8 7.1,-27.9 -3.2,-38.1 l -29.8,-29.8 c -5.6,-5.6 -13,-8.7 -20.9,-8.7 -6.2,0 -12.1,1.9 -17.1,5.5 l -27.8,19.8 c -10.8,-5.7 -22.1,-10.4 -33.8,-13.9 l -5.6,-33.2 c -2.4,-14.3 -14.7,-24.7 -29.2,-24.7 h -42.1 c -14.5,0 -26.8,10.4 -29.2,24.7 l -5.8,34 c -11.2,3.5 -22.1,8.1 -32.5,13.7 l -27.5,-19.8 c -5,-3.6 -11,-5.5 -17.2,-5.5 -7.9,0 -15.4,3.1 -20.9,8.7 l -29.9,29.8 c -10.2,10.2 -11.6,26.3 -3.2,38.1 l 20,28.1 c -5.5,10.5 -9.9,21.4 -13.3,32.7 l -33.2,5.6 c -14.3,2.4 -24.7,14.7 -24.7,29.2 v 42.1 c 0,14.5 10.4,26.8 24.7,29.2 l 34,5.8 c 3.5,11.2 8.1,22.1 13.7,32.5 l -19.7,27.4 c -8.4,11.8 -7.1,27.9 3.2,38.1 l 29.8,29.8 c 5.6,5.6 13,8.7 20.9,8.7 6.2,0 12.1,-1.9 17.1,-5.5 l 28.1,-20 c 10.1,5.3 20.7,9.6 31.6,13 l 5.6,33.6 c 2.4,14.3 14.7,24.7 29.2,24.7 h 42.2 c 14.5,0 26.8,-10.4 29.2,-24.7 l 5.7,-33.6 c 11.3,-3.5 22.2,-8 32.6,-13.5 l 27.7,19.8 c 5,3.6 11,5.5 17.2,5.5 v 0 c 7.9,0 15.3,-3.1 20.9,-8.7 l 29.8,-29.8 c 10.2,-10.2 11.6,-26.3 3.2,-38.1 l -19.8,-27.8 c 5.5,-10.5 10.1,-21.4 13.5,-32.6 l 33.6,-5.6 c 14.3,-2.4 24.7,-14.7 24.7,-29.2 v -42.1 c 0.2,-14.5 -10.2,-26.8 -24.5,-29.2 z m -2.3,71.3 c 0,1.3 -0.9,2.4 -2.2,2.6 l -42,7 c -5.3,0.9 -9.5,4.8 -10.8,9.9 -3.8,14.7 -9.6,28.8 -17.4,41.9 -2.7,4.6 -2.5,10.3 0.6,14.7 l 24.7,34.8 c 0.7,1 0.6,2.5 -0.3,3.4 l -29.8,29.8 c -0.7,0.7 -1.4,0.8 -1.9,0.8 -0.6,0 -1.1,-0.2 -1.5,-0.5 l -34.7,-24.7 c -4.3,-3.1 -10.1,-3.3 -14.7,-0.6 -13.1,7.8 -27.2,13.6 -41.9,17.4 -5.2,1.3 -9.1,5.6 -9.9,10.8 l -7.1,42 c -0.2,1.3 -1.3,2.2 -2.6,2.2 h -42.1 c -1.3,0 -2.4,-0.9 -2.6,-2.2 l -7,-42 c -0.9,-5.3 -4.8,-9.5 -9.9,-10.8 -14.3,-3.7 -28.1,-9.4 -41,-16.8 -2.1,-1.2 -4.5,-1.8 -6.8,-1.8 -2.7,0 -5.5,0.8 -7.8,2.5 l -35,24.9 c -0.5,0.3 -1,0.5 -1.5,0.5 -0.4,0 -1.2,-0.1 -1.9,-0.8 L 75,375.601 c -0.9,-0.9 -1,-2.3 -0.3,-3.4 l 24.6,-34.5 c 3.1,-4.4 3.3,-10.2 0.6,-14.8 -7.8,-13 -13.8,-27.1 -17.6,-41.8 -1.4,-5.1 -5.6,-9 -10.8,-9.9 l -42.3,-7.2 c -1.3,-0.2 -2.2,-1.3 -2.2,-2.6 v -42.1 c 0,-1.3 0.9,-2.4 2.2,-2.6 l 41.7,-7 c 5.3,-0.9 9.6,-4.8 10.9,-10 3.7,-14.7 9.4,-28.9 17.1,-42 2.7,-4.6 2.4,-10.3 -0.7,-14.6 l -24.9,-35 c -0.7,-1 -0.6,-2.5 0.3,-3.4 l 29.8,-29.8 c 0.7,-0.7 1.4,-0.8 1.9,-0.8 0.6,0 1.1,0.2 1.5,0.5 l 34.5,24.6 c 4.4,3.1 10.2,3.3 14.8,0.6 13,-7.8 27.1,-13.8 41.8,-17.6 5.1,-1.4 9,-5.6 9.9,-10.8 l 7.2,-42.3 c 0.2,-1.3 1.3,-2.2 2.6,-2.2 h 42.1 c 1.3,0 2.4,0.9 2.6,2.2 l 7,41.7 c 0.9,5.3 4.8,9.6 10,10.9 15.1,3.8 29.5,9.7 42.9,17.6 4.6,2.7 10.3,2.5 14.7,-0.6 l 34.5,-24.8 c 0.5,-0.3 1,-0.5 1.5,-0.5 0.4,0 1.2,0.1 1.9,0.8 l 29.8,29.8 c 0.9,0.9 1,2.3 0.3,3.4 l -24.7,34.7 c -3.1,4.3 -3.3,10.1 -0.6,14.7 7.8,13.1 13.6,27.2 17.4,41.9 1.3,5.2 5.6,9.1 10.8,9.9 l 42,7.1 c 1.3,0.2 2.2,1.3 2.2,2.6 v 42.1 z"
             id="path5777" />
          <path
             style="fill:#ffffff"
             inkscape:connector-curvature="0"
             d="m 239.4,136.001 c -57,0 -103.3,46.3 -103.3,103.3 0,57 46.3,103.3 103.3,103.3 57,0 103.3,-46.3 103.3,-103.3 0,-57 -46.3,-103.3 -103.3,-103.3 z m 0,179.6 c -42.1,0 -76.3,-34.2 -76.3,-76.3 0,-42.1 34.2,-76.3 76.3,-76.3 42.1,0 76.3,34.2 76.3,76.3 0,42.1 -34.2,76.3 -76.3,76.3 z"
             id="path5779" />
        </g>
      </g>
      <g
         style="fill:#ffffff"
         id="g5785" />
      <g
         style="fill:#ffffff"
         id="g5787" />
      <g
         style="fill:#ffffff"
         id="g5789" />
      <g
         style="fill:#ffffff"
         id="g5791" />
      <g
         style="fill:#ffffff"
         id="g5793" />
      <g
         style="fill:#ffffff"
         id="g5795" />
      <g
         style="fill:#ffffff"
         id="g5797" />
      <g
         style="fill:#ffffff"
         id="g5799" />
      <g
         style="fill:#ffffff"
         id="g5801" />
      <g
         style="fill:#ffffff"
         id="g5803" />
      <g
         style="fill:#ffffff"
         id="g5805" />
      <g
         style="fill:#ffffff"
         id="g5807" />
      <g
         style="fill:#ffffff"
         id="g5809" />
      <g
         style="fill:#ffffff"
         id="g5811" />
      <g
         style="fill:#ffffff"
         id="g5813" />
    </g>
    <g
       id="g5855"
       transform="matrix(0.02770667,0,0,0.02770667,127.25234,90.335295)"
       style="fill:#ffffff">
      <g
         id="g5823"
         style="fill:#ffffff">
        <g
           id="g5821"
           style="fill:#ffffff">
          <path
             id="path5817"
             d="m 454.2,189.101 -33.6,-5.7 c -3.5,-11.3 -8,-22.2 -13.5,-32.6 l 19.8,-27.7 c 8.4,-11.8 7.1,-27.9 -3.2,-38.1 l -29.8,-29.8 c -5.6,-5.6 -13,-8.7 -20.9,-8.7 -6.2,0 -12.1,1.9 -17.1,5.5 l -27.8,19.8 c -10.8,-5.7 -22.1,-10.4 -33.8,-13.9 l -5.6,-33.2 c -2.4,-14.3 -14.7,-24.7 -29.2,-24.7 h -42.1 c -14.5,0 -26.8,10.4 -29.2,24.7 l -5.8,34 c -11.2,3.5 -22.1,8.1 -32.5,13.7 l -27.5,-19.8 c -5,-3.6 -11,-5.5 -17.2,-5.5 -7.9,0 -15.4,3.1 -20.9,8.7 l -29.9,29.8 c -10.2,10.2 -11.6,26.3 -3.2,38.1 l 20,28.1 c -5.5,10.5 -9.9,21.4 -13.3,32.7 l -33.2,5.6 c -14.3,2.4 -24.7,14.7 -24.7,29.2 v 42.1 c 0,14.5 10.4,26.8 24.7,29.2 l 34,5.8 c 3.5,11.2 8.1,22.1 13.7,32.5 l -19.7,27.4 c -8.4,11.8 -7.1,27.9 3.2,38.1 l 29.8,29.8 c 5.6,5.6 13,8.7 20.9,8.7 6.2,0 12.1,-1.9 17.1,-5.5 l 28.1,-20 c 10.1,5.3 20.7,9.6 31.6,13 l 5.6,33.6 c 2.4,14.3 14.7,24.7 29.2,24.7 h 42.2 c 14.5,0 26.8,-10.4 29.2,-24.7 l 5.7,-33.6 c 11.3,-3.5 22.2,-8 32.6,-13.5 l 27.7,19.8 c 5,3.6 11,5.5 17.2,5.5 v 0 c 7.9,0 15.3,-3.1 20.9,-8.7 l 29.8,-29.8 c 10.2,-10.2 11.6,-26.3 3.2,-38.1 l -19.8,-27.8 c 5.5,-10.5 10.1,-21.4 13.5,-32.6 l 33.6,-5.6 c 14.3,-2.4 24.7,-14.7 24.7,-29.2 v -42.1 c 0.2,-14.5 -10.2,-26.8 -24.5,-29.2 z m -2.3,71.3 c 0,1.3 -0.9,2.4 -2.2,2.6 l -42,7 c -5.3,0.9 -9.5,4.8 -10.8,9.9 -3.8,14.7 -9.6,28.8 -17.4,41.9 -2.7,4.6 -2.5,10.3 0.6,14.7 l 24.7,34.8 c 0.7,1 0.6,2.5 -0.3,3.4 l -29.8,29.8 c -0.7,0.7 -1.4,0.8 -1.9,0.8 -0.6,0 -1.1,-0.2 -1.5,-0.5 l -34.7,-24.7 c -4.3,-3.1 -10.1,-3.3 -14.7,-0.6 -13.1,7.8 -27.2,13.6 -41.9,17.4 -5.2,1.3 -9.1,5.6 -9.9,10.8 l -7.1,42 c -0.2,1.3 -1.3,2.2 -2.6,2.2 h -42.1 c -1.3,0 -2.4,-0.9 -2.6,-2.2 l -7,-42 c -0.9,-5.3 -4.8,-9.5 -9.9,-10.8 -14.3,-3.7 -28.1,-9.4 -41,-16.8 -2.1,-1.2 -4.5,-1.8 -6.8,-1.8 -2.7,0 -5.5,0.8 -7.8,2.5 l -35,24.9 c -0.5,0.3 -1,0.5 -1.5,0.5 -0.4,0 -1.2,-0.1 -1.9,-0.8 L 75,375.601 c -0.9,-0.9 -1,-2.3 -0.3,-3.4 l 24.6,-34.5 c 3.1,-4.4 3.3,-10.2 0.6,-14.8 -7.8,-13 -13.8,-27.1 -17.6,-41.8 -1.4,-5.1 -5.6,-9 -10.8,-9.9 l -42.3,-7.2 c -1.3,-0.2 -2.2,-1.3 -2.2,-2.6 v -42.1 c 0,-1.3 0.9,-2.4 2.2,-2.6 l 41.7,-7 c 5.3,-0.9 9.6,-4.8 10.9,-10 3.7,-14.7 9.4,-28.9 17.1,-42 2.7,-4.6 2.4,-10.3 -0.7,-14.6 l -24.9,-35 c -0.7,-1 -0.6,-2.5 0.3,-3.4 l 29.8,-29.8 c 0.7,-0.7 1.4,-0.8 1.9,-0.8 0.6,0 1.1,0.2 1.5,0.5 l 34.5,24.6 c 4.4,3.1 10.2,3.3 14.8,0.6 13,-7.8 27.1,-13.8 41.8,-17.6 5.1,-1.4 9,-5.6 9.9,-10.8 l 7.2,-42.3 c 0.2,-1.3 1.3,-2.2 2.6,-2.2 h 42.1 c 1.3,0 2.4,0.9 2.6,2.2 l 7,41.7 c 0.9,5.3 4.8,9.6 10,10.9 15.1,3.8 29.5,9.7 42.9,17.6 4.6,2.7 10.3,2.5 14.7,-0.6 l 34.5,-24.8 c 0.5,-0.3 1,-0.5 1.5,-0.5 0.4,0 1.2,0.1 1.9,0.8 l 29.8,29.8 c 0.9,0.9 1,2.3 0.3,3.4 l -24.7,34.7 c -3.1,4.3 -3.3,10.1 -0.6,14.7 7.8,13.1 13.6,27.2 17.4,41.9 1.3,5.2 5.6,9.1 10.8,9.9 l 42,7.1 c 1.3,0.2 2.2,1.3 2.2,2.6 v 42.1 z"
             inkscape:connector-curvature="0"
             style="fill:#ffffff" />
          <path
             id="path5819"
             d="m 239.4,136.001 c -57,0 -103.3,46.3 -103.3,103.3 0,57 46.3,103.3 103.3,103.3 57,0 103.3,-46.3 103.3,-103.3 0,-57 -46.3,-103.3 -103.3,-103.3 z m 0,179.6 c -42.1,0 -76.3,-34.2 -76.3,-76.3 0,-42.1 34.2,-76.3 76.3,-76.3 42.1,0 76.3,34.2 76.3,76.3 0,42.1 -34.2,76.3 -76.3,76.3 z"
             inkscape:connector-curvature="0"
             style="fill:#ffffff" />
        </g>
      </g>
      <g
         id="g5825"
         style="fill:#ffffff" />
      <g
         id="g5827"
         style="fill:#ffffff" />
      <g
         id="g5829"
         style="fill:#ffffff" />
      <g
         id="g5831"
         style="fill:#ffffff" />
      <g
         id="g5833"
         style="fill:#ffffff" />
      <g
         id="g5835"
         style="fill:#ffffff" />
      <g
         id="g5837"
         style="fill:#ffffff" />
      <g
         id="g5839"
         style="fill:#ffffff" />
      <g
         id="g5841"
         style="fill:#ffffff" />
      <g
         id="g5843"
         style="fill:#ffffff" />
      <g
         id="g5845"
         style="fill:#ffffff" />
      <g
         id="g5847"
         style="fill:#ffffff" />
      <g
         id="g5849"
         style="fill:#ffffff" />
      <g
         id="g5851"
         style="fill:#ffffff" />
      <g
         id="g5853"
         style="fill:#ffffff" />
    </g>
  </g>
</svg>
