<?xml version="1.0" encoding="UTF-8" standalone="no"?>
<!-- Created with Inkscape (http://www.inkscape.org/) -->

<svg
   xmlns:dc="http://purl.org/dc/elements/1.1/"
   xmlns:cc="http://creativecommons.org/ns#"
   xmlns:rdf="http://www.w3.org/1999/02/22-rdf-syntax-ns#"
   xmlns:svg="http://www.w3.org/2000/svg"
   xmlns="http://www.w3.org/2000/svg"
   xmlns:sodipodi="http://sodipodi.sourceforge.net/DTD/sodipodi-0.dtd"
   xmlns:inkscape="http://www.inkscape.org/namespaces/inkscape"
   width="75.394371mm"
   height="78.398979mm"
   viewBox="0 0 75.394372 78.39898"
   version="1.1"
   id="svg8"
   inkscape:version="0.92.0 r"
   sodipodi:docname="nova_components22.svg">
  <defs
     id="defs2" />
  <sodipodi:namedview
     id="base"
     pagecolor="#ffffff"
     bordercolor="#666666"
     borderopacity="1.0"
     inkscape:pageopacity="0.0"
     inkscape:pageshadow="2"
     inkscape:zoom="1.979899"
     inkscape:cx="126.44751"
     inkscape:cy="127.77931"
     inkscape:document-units="mm"
     inkscape:current-layer="layer1"
     showgrid="false"
     inkscape:window-width="2560"
     inkscape:window-height="1600"
     inkscape:window-x="0"
     inkscape:window-y="0"
     inkscape:window-maximized="0"
     fit-margin-top="0"
     fit-margin-left="0"
     fit-margin-right="0"
     fit-margin-bottom="0" />
  <metadata
     id="metadata5">
    <rdf:RDF>
      <cc:Work
         rdf:about="">
        <dc:format>image/svg+xml</dc:format>
        <dc:type
           rdf:resource="http://purl.org/dc/dcmitype/StillImage" />
        <dc:title></dc:title>
      </cc:Work>
    </rdf:RDF>
  </metadata>
  <g
     inkscape:label="Layer 1"
     inkscape:groupmode="layer"
     id="layer1"
     transform="translate(-72.595397,-44.298921)">
    <path
       transform="rotate(-1.1339144,-1919.4917,1267.6926)"
       sodipodi:type="star"
       style="fill:#7ccb9e;fill-opacity:1;stroke-width:0.09630936"
       id="path7700"
       sodipodi:sides="6"
       sodipodi:cx="133.88397"
       sodipodi:cy="96.966911"
       sodipodi:r1="12.220682"
       sodipodi:r2="14.14881"
       sodipodi:arg1="-1.6095999"
       sodipodi:arg2="-1.0276701"
       inkscape:flatsided="false"
       inkscape:rounded="0.0094664047"
       inkscape:randomized="0"
       d="m 133.40989,84.755428 c 0.0737,0.0014 7.72118,0.06437 7.7864,0.09873 0.0533,0.02807 2.997,5.543707 3.02609,5.596443 0.0356,0.06455 3.80484,6.718926 3.80771,6.792586 0.002,0.06018 -3.30249,5.367336 -3.33362,5.418896 -0.0381,0.0631 -3.91634,6.65455 -3.9787,6.69386 -0.051,0.0321 -6.2995,-0.17637 -6.35971,-0.17755 -0.0737,-0.001 -7.72118,-0.0644 -7.7864,-0.0987 -0.0533,-0.0281 -2.99701,-5.54371 -3.0261,-5.59645 -0.0356,-0.0645 -3.80484,-6.718922 -3.8077,-6.792581 -0.002,-0.06018 3.30249,-5.367338 3.33361,-5.418898 0.0381,-0.06311 3.91634,-6.654552 3.9787,-6.693859 0.051,-0.03212 6.2995,0.17637 6.35972,0.177546 z"
       inkscape:transform-center-x="0.043014202"
       inkscape:transform-center-y="-2.1733012" />
    <path
       inkscape:transform-center-y="-2.1733012"
       inkscape:transform-center-x="0.043014202"
       d="m 133.40989,84.755428 c 0.0737,0.0014 7.72118,0.06437 7.7864,0.09873 0.0533,0.02807 2.997,5.543707 3.02609,5.596443 0.0356,0.06455 3.80484,6.718926 3.80771,6.792586 0.002,0.06018 -3.30249,5.367336 -3.33362,5.418896 -0.0381,0.0631 -3.91634,6.65455 -3.9787,6.69386 -0.051,0.0321 -6.2995,-0.17637 -6.35971,-0.17755 -0.0737,-0.001 -7.72118,-0.0644 -7.7864,-0.0987 -0.0533,-0.0281 -2.99701,-5.54371 -3.0261,-5.59645 -0.0356,-0.0645 -3.80484,-6.718922 -3.8077,-6.792581 -0.002,-0.06018 3.30249,-5.367338 3.33361,-5.418898 0.0381,-0.06311 3.91634,-6.654552 3.9787,-6.693859 0.051,-0.03212 6.2995,0.17637 6.35972,0.177546 z"
       inkscape:randomized="0"
       inkscape:rounded="0.0094664047"
       inkscape:flatsided="false"
       sodipodi:arg2="-1.0276701"
       sodipodi:arg1="-1.6095999"
       sodipodi:r2="14.14881"
       sodipodi:r1="12.220682"
       sodipodi:cy="96.966911"
       sodipodi:cx="133.88397"
       sodipodi:sides="6"
       id="path7704"
       style="fill:#7ccb9e;fill-opacity:1;stroke-width:0.09630936"
       sodipodi:type="star"
       transform="rotate(-1.1339144,-1250.7458,2465.3548)" />
    <path
       transform="rotate(-1.1339144,110.31409,2478.8233)"
       sodipodi:type="star"
       style="fill:#000000;fill-opacity:1;stroke-width:0.09630936"
       id="path7710"
       sodipodi:sides="6"
       sodipodi:cx="133.88397"
       sodipodi:cy="96.966911"
       sodipodi:r1="12.220682"
       sodipodi:r2="14.14881"
       sodipodi:arg1="-1.6095999"
       sodipodi:arg2="-1.0276701"
       inkscape:flatsided="false"
       inkscape:rounded="0.0094664047"
       inkscape:randomized="0"
       d="m 133.40989,84.755428 c 0.0737,0.0014 7.72118,0.06437 7.7864,0.09873 0.0533,0.02807 2.997,5.543707 3.02609,5.596443 0.0356,0.06455 3.80484,6.718926 3.80771,6.792586 0.002,0.06018 -3.30249,5.367336 -3.33362,5.418896 -0.0381,0.0631 -3.91634,6.65455 -3.9787,6.69386 -0.051,0.0321 -6.2995,-0.17637 -6.35971,-0.17755 -0.0737,-0.001 -7.72118,-0.0644 -7.7864,-0.0987 -0.0533,-0.0281 -2.99701,-5.54371 -3.0261,-5.59645 -0.0356,-0.0645 -3.80484,-6.718922 -3.8077,-6.792581 -0.002,-0.06018 3.30249,-5.367338 3.33361,-5.418898 0.0381,-0.06311 3.91634,-6.654552 3.9787,-6.693859 0.051,-0.03212 6.2995,0.17637 6.35972,0.177546 z"
       inkscape:transform-center-x="0.043014202"
       inkscape:transform-center-y="-2.1733012" />
    <path
       inkscape:transform-center-y="-2.1733012"
       inkscape:transform-center-x="0.043014202"
       d="m 133.40989,84.755428 c 0.0737,0.0014 7.72118,0.06437 7.7864,0.09873 0.0533,0.02807 2.997,5.543707 3.02609,5.596443 0.0356,0.06455 3.80484,6.718926 3.80771,6.792586 0.002,0.06018 -3.30249,5.367336 -3.33362,5.418896 -0.0381,0.0631 -3.91634,6.65455 -3.9787,6.69386 -0.051,0.0321 -6.2995,-0.17637 -6.35971,-0.17755 -0.0737,-0.001 -7.72118,-0.0644 -7.7864,-0.0987 -0.0533,-0.0281 -2.99701,-5.54371 -3.0261,-5.59645 -0.0356,-0.0645 -3.80484,-6.718922 -3.8077,-6.792581 -0.002,-0.06018 3.30249,-5.367338 3.33361,-5.418898 0.0381,-0.06311 3.91634,-6.654552 3.9787,-6.693859 0.051,-0.03212 6.2995,0.17637 6.35972,0.177546 z"
       inkscape:randomized="0"
       inkscape:rounded="0.0094664047"
       inkscape:flatsided="false"
       sodipodi:arg2="-1.0276701"
       sodipodi:arg1="-1.6095999"
       sodipodi:r2="14.14881"
       sodipodi:r1="12.220682"
       sodipodi:cy="96.966911"
       sodipodi:cx="133.88397"
       sodipodi:sides="6"
       id="path7718"
       style="fill:#7ccb9e;fill-opacity:1;stroke-width:0.09630936"
       sodipodi:type="star"
       transform="rotate(-1.1339144,802.62916,1294.6296)" />
    <path
       transform="rotate(-1.1339144,-558.43072,1281.1611)"
       sodipodi:type="star"
       style="fill:#000000;fill-opacity:1;stroke-width:0.09630936"
       id="path7728"
       sodipodi:sides="6"
       sodipodi:cx="133.88397"
       sodipodi:cy="96.966911"
       sodipodi:r1="12.220682"
       sodipodi:r2="14.14881"
       sodipodi:arg1="-1.6095999"
       sodipodi:arg2="-1.0276701"
       inkscape:flatsided="false"
       inkscape:rounded="0.0094664047"
       inkscape:randomized="0"
       d="m 133.40989,84.755428 c 0.0737,0.0014 7.72118,0.06437 7.7864,0.09873 0.0533,0.02807 2.997,5.543707 3.02609,5.596443 0.0356,0.06455 3.80484,6.718926 3.80771,6.792586 0.002,0.06018 -3.30249,5.367336 -3.33362,5.418896 -0.0381,0.0631 -3.91634,6.65455 -3.9787,6.69386 -0.051,0.0321 -6.2995,-0.17637 -6.35971,-0.17755 -0.0737,-0.001 -7.72118,-0.0644 -7.7864,-0.0987 -0.0533,-0.0281 -2.99701,-5.54371 -3.0261,-5.59645 -0.0356,-0.0645 -3.80484,-6.718922 -3.8077,-6.792581 -0.002,-0.06018 3.30249,-5.367338 3.33361,-5.418898 0.0381,-0.06311 3.91634,-6.654552 3.9787,-6.693859 0.051,-0.03212 6.2995,0.17637 6.35972,0.177546 z"
       inkscape:transform-center-x="0.043014202"
       inkscape:transform-center-y="-2.1733012" />
    <path
       inkscape:transform-center-y="-2.1733012"
       inkscape:transform-center-x="0.043014202"
       d="m 133.40989,84.755428 c 0.0737,0.0014 7.72118,0.06437 7.7864,0.09873 0.0533,0.02807 2.997,5.543707 3.02609,5.596443 0.0356,0.06455 3.80484,6.718926 3.80771,6.792586 0.002,0.06018 -3.30249,5.367336 -3.33362,5.418896 -0.0381,0.0631 -3.91634,6.65455 -3.9787,6.69386 -0.051,0.0321 -6.2995,-0.17637 -6.35971,-0.17755 -0.0737,-0.001 -7.72118,-0.0644 -7.7864,-0.0987 -0.0533,-0.0281 -2.99701,-5.54371 -3.0261,-5.59645 -0.0356,-0.0645 -3.80484,-6.718922 -3.8077,-6.792581 -0.002,-0.06018 3.30249,-5.367338 3.33361,-5.418898 0.0381,-0.06311 3.91634,-6.654552 3.9787,-6.693859 0.051,-0.03212 6.2995,0.17637 6.35972,0.177546 z"
       inkscape:randomized="0"
       inkscape:rounded="0.0094664047"
       inkscape:flatsided="false"
       sodipodi:arg2="-1.0276701"
       sodipodi:arg1="-1.6095999"
       sodipodi:r2="14.14881"
       sodipodi:r1="12.220682"
       sodipodi:cy="96.966911"
       sodipodi:cx="133.88397"
       sodipodi:sides="6"
       id="path5417"
       style="fill:#7ccb9e;fill-opacity:1;stroke-width:0.09630936"
       sodipodi:type="star"
       transform="rotate(-1.1339144,133.88397,99.140638)" />
    <g
       id="g5626"
       transform="matrix(0.18181818,0,0,0.18181818,81.744209,87.566797)"
       style="fill:#ffffff">
      <path
         id="path5571"
         d="M 52.354,8.51 C 51.196,4.22 42.577,0 27.5,0 12.423,0 3.803,4.22 2.646,8.51 2.562,8.657 2.5,8.818 2.5,9 V 9.5 21 21.5 22 33 33.5 34 46 c 0,0.162 0.043,0.315 0.117,0.451 C 3.798,51.346 14.364,55 27.5,55 40.606,55 51.155,51.361 52.375,46.484 52.455,46.341 52.5,46.176 52.5,46 V 34 33.5 33 22 21.5 21 9.5 9 c 0,-0.182 -0.062,-0.343 -0.146,-0.49 z m -1.933,25.475 c -0.028,0.121 -0.067,0.241 -0.116,0.363 -0.04,0.099 -0.089,0.198 -0.143,0.297 -0.067,0.123 -0.142,0.246 -0.231,0.369 -0.066,0.093 -0.141,0.185 -0.219,0.277 -0.111,0.131 -0.229,0.262 -0.363,0.392 -0.081,0.079 -0.17,0.157 -0.26,0.236 -0.164,0.143 -0.335,0.285 -0.526,0.426 -0.082,0.061 -0.17,0.12 -0.257,0.18 -0.226,0.156 -0.462,0.311 -0.721,0.463 -0.068,0.041 -0.141,0.08 -0.212,0.12 -0.298,0.168 -0.609,0.335 -0.945,0.497 -0.043,0.021 -0.088,0.041 -0.132,0.061 -0.375,0.177 -0.767,0.351 -1.186,0.519 -0.012,0.005 -0.024,0.009 -0.036,0.014 -2.271,0.907 -5.176,1.67 -8.561,2.17 -0.017,0.002 -0.034,0.004 -0.051,0.007 -0.658,0.097 -1.333,0.183 -2.026,0.259 -0.113,0.012 -0.232,0.02 -0.346,0.032 -0.605,0.063 -1.217,0.121 -1.847,0.167 -0.288,0.021 -0.59,0.031 -0.883,0.049 -0.474,0.028 -0.943,0.059 -1.429,0.076 C 29.137,40.984 28.327,41 27.5,41 26.673,41 25.863,40.984 25.068,40.956 24.582,40.939 24.113,40.907 23.639,40.88 23.346,40.863 23.044,40.852 22.756,40.831 22.126,40.785 21.514,40.727 20.909,40.664 20.795,40.652 20.676,40.644 20.563,40.632 19.87,40.556 19.195,40.469 18.537,40.373 18.52,40.371 18.503,40.369 18.486,40.366 15.101,39.866 12.196,39.103 9.925,38.196 9.913,38.192 9.901,38.187 9.889,38.182 9.47,38.014 9.077,37.84 8.703,37.663 8.66,37.642 8.614,37.622 8.571,37.602 8.235,37.44 7.924,37.274 7.626,37.105 7.556,37.065 7.482,37.026 7.414,36.985 7.155,36.833 6.919,36.678 6.693,36.522 6.607,36.462 6.518,36.403 6.436,36.342 6.245,36.201 6.074,36.059 5.91,35.916 5.821,35.838 5.731,35.76 5.65,35.68 5.516,35.55 5.398,35.42 5.287,35.288 5.209,35.196 5.134,35.104 5.068,35.011 4.98,34.888 4.905,34.765 4.837,34.642 4.783,34.543 4.735,34.444 4.694,34.345 4.645,34.224 4.606,34.103 4.578,33.982 4.541,33.823 4.5,33.661 4.5,33.5 4.5,33.387 4.513,33.274 4.531,33.162 4.556,33.011 4.542,32.86 4.5,32.717 v -7.424 c 0.028,0.026 0.063,0.051 0.092,0.077 0.218,0.192 0.44,0.383 0.69,0.567 C 9.049,28.786 16.582,31 27.5,31 c 10.872,0 18.386,-2.196 22.169,-5.028 0.302,-0.22 0.574,-0.447 0.83,-0.678 L 50.5,25.293 v 7.424 c -0.042,0.143 -0.056,0.294 -0.031,0.445 0.019,0.112 0.031,0.225 0.031,0.338 0,0.161 -0.041,0.323 -0.079,0.485 z M 50.5,13.293 v 7.424 c -0.042,0.143 -0.056,0.294 -0.031,0.445 0.019,0.112 0.031,0.225 0.031,0.338 0,0.161 -0.041,0.323 -0.079,0.485 -0.028,0.121 -0.067,0.241 -0.116,0.363 -0.04,0.099 -0.089,0.198 -0.143,0.297 -0.067,0.123 -0.142,0.246 -0.231,0.369 -0.066,0.093 -0.141,0.185 -0.219,0.277 -0.111,0.131 -0.229,0.262 -0.363,0.392 -0.081,0.079 -0.17,0.157 -0.26,0.236 -0.164,0.143 -0.335,0.285 -0.526,0.426 -0.082,0.061 -0.17,0.12 -0.257,0.18 -0.226,0.156 -0.462,0.311 -0.721,0.463 -0.068,0.041 -0.141,0.08 -0.212,0.12 -0.298,0.168 -0.609,0.335 -0.945,0.497 -0.043,0.021 -0.088,0.041 -0.132,0.061 -0.375,0.177 -0.767,0.351 -1.186,0.519 -0.012,0.005 -0.024,0.009 -0.036,0.014 -2.271,0.907 -5.176,1.67 -8.561,2.17 -0.017,0.002 -0.034,0.004 -0.051,0.007 -0.658,0.097 -1.333,0.183 -2.026,0.259 -0.113,0.012 -0.232,0.02 -0.346,0.032 -0.605,0.063 -1.217,0.121 -1.847,0.167 -0.288,0.021 -0.59,0.031 -0.883,0.049 -0.474,0.028 -0.943,0.059 -1.429,0.076 C 29.137,28.984 28.327,29 27.5,29 26.673,29 25.863,28.984 25.068,28.956 24.582,28.939 24.113,28.907 23.639,28.88 23.346,28.863 23.044,28.852 22.756,28.831 22.126,28.785 21.514,28.727 20.909,28.664 20.795,28.652 20.676,28.644 20.563,28.632 19.87,28.556 19.195,28.469 18.537,28.373 18.52,28.371 18.503,28.369 18.486,28.366 15.101,27.866 12.196,27.103 9.925,26.196 9.913,26.192 9.901,26.187 9.889,26.182 9.47,26.014 9.077,25.84 8.703,25.663 8.66,25.642 8.614,25.622 8.571,25.602 8.235,25.44 7.924,25.274 7.626,25.105 7.556,25.065 7.482,25.026 7.414,24.985 7.155,24.833 6.919,24.678 6.693,24.522 6.607,24.462 6.518,24.403 6.436,24.342 6.245,24.201 6.074,24.059 5.91,23.916 5.821,23.838 5.731,23.76 5.65,23.68 5.516,23.55 5.398,23.42 5.287,23.288 5.209,23.196 5.134,23.104 5.068,23.011 4.98,22.888 4.905,22.765 4.837,22.642 4.783,22.543 4.735,22.444 4.694,22.345 4.645,22.224 4.606,22.103 4.578,21.982 4.541,21.823 4.5,21.661 4.5,21.5 4.5,21.387 4.513,21.274 4.531,21.162 4.556,21.011 4.542,20.86 4.5,20.717 v -7.424 c 0.12,0.109 0.257,0.216 0.387,0.324 0.072,0.06 0.139,0.12 0.215,0.18 0.3,0.236 0.624,0.469 0.975,0.696 0.073,0.047 0.155,0.093 0.231,0.14 0.294,0.183 0.605,0.362 0.932,0.538 0.121,0.065 0.242,0.129 0.367,0.193 0.365,0.186 0.748,0.367 1.151,0.542 0.066,0.029 0.126,0.059 0.193,0.087 0.469,0.199 0.967,0.389 1.485,0.573 0.143,0.051 0.293,0.099 0.44,0.149 0.412,0.139 0.838,0.272 1.279,0.401 0.159,0.046 0.315,0.094 0.478,0.138 0.585,0.162 1.189,0.316 1.823,0.458 0.087,0.02 0.181,0.036 0.269,0.055 0.559,0.122 1.139,0.235 1.735,0.341 0.202,0.036 0.407,0.07 0.613,0.104 0.567,0.093 1.151,0.178 1.75,0.256 0.154,0.02 0.301,0.043 0.457,0.062 0.744,0.09 1.514,0.167 2.305,0.233 0.195,0.016 0.398,0.028 0.596,0.042 0.633,0.046 1.28,0.084 1.942,0.114 0.241,0.011 0.481,0.022 0.727,0.031 0.862,0.029 1.74,0.05 2.65,0.05 0.91,0 1.788,-0.021 2.65,-0.05 0.245,-0.009 0.485,-0.02 0.727,-0.031 0.662,-0.03 1.309,-0.068 1.942,-0.114 0.198,-0.015 0.4,-0.026 0.596,-0.042 0.791,-0.065 1.561,-0.143 2.305,-0.233 0.156,-0.019 0.303,-0.042 0.457,-0.062 0.599,-0.078 1.182,-0.163 1.75,-0.256 0.206,-0.034 0.411,-0.068 0.613,-0.104 0.596,-0.106 1.176,-0.219 1.735,-0.341 0.088,-0.019 0.182,-0.036 0.269,-0.055 0.634,-0.142 1.238,-0.297 1.823,-0.458 0.163,-0.045 0.319,-0.092 0.478,-0.138 0.441,-0.129 0.867,-0.262 1.279,-0.401 0.147,-0.05 0.297,-0.098 0.44,-0.149 0.518,-0.184 1.017,-0.374 1.485,-0.573 0.067,-0.028 0.127,-0.058 0.193,-0.087 0.403,-0.176 0.786,-0.356 1.151,-0.542 0.125,-0.064 0.247,-0.128 0.367,-0.193 0.327,-0.175 0.638,-0.354 0.932,-0.538 0.076,-0.047 0.158,-0.093 0.231,-0.14 0.351,-0.227 0.675,-0.459 0.975,-0.696 0.075,-0.06 0.142,-0.12 0.215,-0.18 0.13,-0.108 0.267,-0.215 0.387,-0.324 z M 27.5,2 c 13.555,0 23,3.952 23,7.5 0,3.548 -9.445,7.5 -23,7.5 C 13.945,17 4.5,13.048 4.5,9.5 4.5,5.952 13.945,2 27.5,2 Z m 23,43.703 c -0.014,0.044 -0.024,0.089 -0.032,0.135 C 49.901,49.297 40.536,53 27.5,53 14.464,53 5.099,49.297 4.532,45.838 4.524,45.793 4.513,45.749 4.5,45.707 v -8.414 c 0.028,0.026 0.063,0.051 0.092,0.077 0.218,0.192 0.44,0.383 0.69,0.567 C 9.049,40.786 16.582,43 27.5,43 c 10.872,0 18.386,-2.196 22.169,-5.028 0.302,-0.22 0.574,-0.447 0.83,-0.678 L 50.5,37.293 Z"
         inkscape:connector-curvature="0"
         style="fill:#ffffff" />
      <g
         id="g5573"
         style="fill:#ffffff" />
      <g
         id="g5575"
         style="fill:#ffffff" />
      <g
         id="g5577"
         style="fill:#ffffff" />
      <g
         id="g5579"
         style="fill:#ffffff" />
      <g
         id="g5581"
         style="fill:#ffffff" />
      <g
         id="g5583"
         style="fill:#ffffff" />
      <g
         id="g5585"
         style="fill:#ffffff" />
      <g
         id="g5587"
         style="fill:#ffffff" />
      <g
         id="g5589"
         style="fill:#ffffff" />
      <g
         id="g5591"
         style="fill:#ffffff" />
      <g
         id="g5593"
         style="fill:#ffffff" />
      <g
         id="g5595"
         style="fill:#ffffff" />
      <g
         id="g5597"
         style="fill:#ffffff" />
      <g
         id="g5599"
         style="fill:#ffffff" />
      <g
         id="g5601"
         style="fill:#ffffff" />
    </g>
    <g
       id="g6928"
       transform="matrix(0.02717391,0,0,0.02717391,105.31409,101.9281)"
       style="fill:#ffffff">
      <g
         id="g6862"
         style="fill:#ffffff">
        <g
           id="g6860"
           style="fill:#ffffff">
          <g
             id="g6858"
             style="fill:#ffffff">
            <path
               id="path6840"
               d="m 184,60 c 4.4,0 8,-3.6 8,-8 v -4 c 0,-4.4 -3.6,-8 -8,-8 -4.4,0 -8,3.6 -8,8 v 4 c 0,4.4 3.6,8 8,8 z"
               inkscape:connector-curvature="0"
               style="fill:#ffffff" />
            <path
               id="path6842"
               d="m 184,308 c -4.4,0 -8,3.6 -8,8 v 4 c 0,4.4 3.6,8 8,8 4.4,0 8,-3.6 8,-8 v -4 c 0,-4.4 -3.6,-8 -8,-8 z"
               inkscape:connector-curvature="0"
               style="fill:#ffffff" />
            <path
               id="path6844"
               d="m 52,176 h -4 c -4.4,0 -8,3.6 -8,8 0,4.4 3.6,8 8,8 h 4 c 4.4,0 8,-3.6 8,-8 0,-4.4 -3.6,-8 -8,-8 z"
               inkscape:connector-curvature="0"
               style="fill:#ffffff" />
            <path
               id="path6846"
               d="m 320,176 h -4 c -4.4,0 -8,3.6 -8,8 0,4.4 3.6,8 8,8 h 4 c 4.4,0 8,-3.6 8,-8 0,-4.4 -3.6,-8 -8,-8 z"
               inkscape:connector-curvature="0"
               style="fill:#ffffff" />
            <path
               id="path6848"
               d="m 93.6,82.4 c -3.2,-3.2 -8,-3.2 -11.2,0 -3.2,3.2 -3.2,8 0,11.2 l 2.8,2.8 c 1.6,1.6 3.6,2.4 5.6,2.4 2,0 4,-0.8 5.6,-2.4 3.2,-3.2 3.2,-8 0,-11.2 z"
               inkscape:connector-curvature="0"
               style="fill:#ffffff" />
            <path
               id="path6850"
               d="m 85.2,271.6 -2.8,2.8 c -3.2,3.2 -3.2,8 0,11.2 1.6,1.6 3.6,2.4 5.6,2.4 2,0 4,-0.8 5.6,-2.4 l 2.8,-2.8 c 3.2,-3.2 3.2,-8 0,-11.2 -3.2,-3.2 -8,-3.2 -11.2,0 z"
               inkscape:connector-curvature="0"
               style="fill:#ffffff" />
            <path
               id="path6852"
               d="m 274.4,82.4 -2.8,2.8 c -3.2,3.2 -3.2,8 0,11.2 1.6,1.6 3.6,2.4 5.6,2.4 2,0 4,-0.8 5.6,-2.4 l 2.8,-2.8 c 3.2,-3.2 3.2,-8 0,-11.2 -3.2,-3.2 -8,-3.2 -11.2,0 z"
               inkscape:connector-curvature="0"
               style="fill:#ffffff" />
            <path
               id="path6854"
               d="M 192,180.8 V 108 c 0,-4.4 -3.6,-8 -8,-8 -4.4,0 -8,3.6 -8,8 v 76 c 0,2 0.8,4 2.4,5.6 l 87.6,87.6 c 1.6,1.6 3.6,2.4 5.6,2.4 2,0 4,-0.8 5.6,-2.4 3.2,-3.2 3.2,-8 0,-11.2 z"
               inkscape:connector-curvature="0"
               style="fill:#ffffff" />
            <path
               id="path6856"
               d="M 184,0 C 82.4,0 0,82.4 0,184 0,285.6 82.4,368 184,368 285.6,368 368,285.6 368,184 368,82.4 285.6,0 184,0 Z m 0,352 C 91.2,352 16,276.8 16,184 16,91.2 91.2,16 184,16 c 92.8,0 168,75.2 168,168 0,92.8 -75.2,168 -168,168 z"
               inkscape:connector-curvature="0"
               style="fill:#ffffff" />
          </g>
        </g>
      </g>
      <g
         id="g6864"
         style="fill:#ffffff" />
      <g
         id="g6866"
         style="fill:#ffffff" />
      <g
         id="g6868"
         style="fill:#ffffff" />
      <g
         id="g6870"
         style="fill:#ffffff" />
      <g
         id="g6872"
         style="fill:#ffffff" />
      <g
         id="g6874"
         style="fill:#ffffff" />
      <g
         id="g6876"
         style="fill:#ffffff" />
      <g
         id="g6878"
         style="fill:#ffffff" />
      <g
         id="g6880"
         style="fill:#ffffff" />
      <g
         id="g6882"
         style="fill:#ffffff" />
      <g
         id="g6884"
         style="fill:#ffffff" />
      <g
         id="g6886"
         style="fill:#ffffff" />
      <g
         id="g6888"
         style="fill:#ffffff" />
      <g
         id="g6890"
         style="fill:#ffffff" />
      <g
         id="g6892"
         style="fill:#ffffff" />
    </g>
    <g
       id="g6998"
       transform="matrix(0.35531552,0,0,0.35531552,104.53879,74.215807)"
       style="fill:#ffffff">
      <g
         id="g6938"
         style="fill:#ffffff">
        <g
           id="c30_paper"
           style="fill:#ffffff">
          <path
             id="path6930"
             d="M 0,11.257 16.254,2.182 32.508,11.257 16.254,20.331 Z"
             inkscape:connector-curvature="0"
             style="fill:#ffffff" />
          <path
             id="path6932"
             d="m 0,16.255 1.908,-1.614 14.346,7.715 14.32,-7.748 1.934,1.647 -16.254,9.072 z"
             inkscape:connector-curvature="0"
             style="fill:#ffffff" />
          <path
             id="path6934"
             d="m 0,21.254 1.908,-1.615 14.346,7.716 14.32,-7.75 1.934,1.649 -16.254,9.072 z"
             inkscape:connector-curvature="0"
             style="fill:#ffffff" />
        </g>
        <g
           id="Capa_1_25_"
           style="fill:#ffffff" />
      </g>
      <g
         id="g6940"
         style="fill:#ffffff" />
      <g
         id="g6942"
         style="fill:#ffffff" />
      <g
         id="g6944"
         style="fill:#ffffff" />
      <g
         id="g6946"
         style="fill:#ffffff" />
      <g
         id="g6948"
         style="fill:#ffffff" />
      <g
         id="g6950"
         style="fill:#ffffff" />
      <g
         id="g6952"
         style="fill:#ffffff" />
      <g
         id="g6954"
         style="fill:#ffffff" />
      <g
         id="g6956"
         style="fill:#ffffff" />
      <g
         id="g6958"
         style="fill:#ffffff" />
      <g
         id="g6960"
         style="fill:#ffffff" />
      <g
         id="g6962"
         style="fill:#ffffff" />
      <g
         id="g6964"
         style="fill:#ffffff" />
      <g
         id="g6966"
         style="fill:#ffffff" />
      <g
         id="g6968"
         style="fill:#ffffff" />
    </g>
    <g
       id="g7321"
       transform="matrix(0.62992126,0,0,0.62992126,108.96864,50.61919)"
       style="fill:#ffffff">
      <path
         style="fill:#ffffff;stroke-width:0.26458332"
         inkscape:connector-curvature="0"
         d="m 34.393714,59.728469 c -0.656431,0 -1.190625,0.534193 -1.190625,1.190625 0,0.656431 0.534194,1.190625 1.190625,1.190625 0.656431,0 1.190625,-0.534194 1.190625,-1.190625 0,-0.656432 -0.534194,-1.190625 -1.190625,-1.190625 z m 0,1.852083 c -0.364596,0 -0.661458,-0.296598 -0.661458,-0.661458 0,-0.364861 0.296862,-0.661459 0.661458,-0.661459 0.364596,0 0.661458,0.296598 0.661458,0.661459 0,0.36486 -0.296862,0.661458 -0.661458,0.661458 z"
         id="path7000" />
      <circle
         style="fill:#ffffff;stroke-width:0.26458332"
         cx="44.844757"
         cy="60.522217"
         r="0.26458332"
         id="circle7002" />
      <circle
         style="fill:#ffffff;stroke-width:0.26458332"
         cx="43.786423"
         cy="60.522217"
         r="0.26458332"
         id="circle7004" />
      <circle
         style="fill:#ffffff;stroke-width:0.26458332"
         cx="45.37392"
         cy="61.315968"
         r="0.26458332"
         id="circle7006" />
      <circle
         style="fill:#ffffff;stroke-width:0.26458332"
         cx="44.31559"
         cy="61.315968"
         r="0.26458332"
         id="circle7008" />
      <circle
         style="fill:#ffffff;stroke-width:0.26458332"
         cx="42.728088"
         cy="60.522217"
         r="0.26458332"
         id="circle7010" />
      <circle
         style="fill:#ffffff;stroke-width:0.26458332"
         cx="43.257256"
         cy="61.315968"
         r="0.26458332"
         id="circle7012" />
      <circle
         style="fill:#ffffff;stroke-width:0.26458332"
         cx="41.669754"
         cy="60.522217"
         r="0.26458332"
         id="circle7014" />
      <circle
         style="fill:#ffffff;stroke-width:0.26458332"
         cx="42.198921"
         cy="61.315968"
         r="0.26458332"
         id="circle7016" />
      <circle
         style="fill:#ffffff;stroke-width:0.26458332"
         cx="40.611423"
         cy="60.522217"
         r="0.26458332"
         id="circle7018" />
      <circle
         style="fill:#ffffff;stroke-width:0.26458332"
         cx="41.140591"
         cy="61.315968"
         r="0.26458332"
         id="circle7020" />
      <path
         sodipodi:nodetypes="csssssccsccssssssccc"
         style="fill:#ffffff;stroke-width:0.26458332"
         inkscape:connector-curvature="0"
         d="m 47.490589,62.478019 v -3.11785 c 0,-0.672307 -0.546894,-1.2192 -1.2192,-1.2192 h -13.4366 c -0.672306,0 -1.2192,0.546893 -1.2192,1.2192 v 3.117585 c 0,0.388673 0.153781,0.857778 0.588283,1.072735 1.245128,0.02861 14.722058,0.01208 14.722058,0.01208 0.555833,-0.217402 0.564659,-0.696137 0.564659,-1.084545 z m -14.6558,0.690033 c -0.380471,0 -0.690033,-0.309563 -0.690033,-0.690033 v -3.11785 c 0,-0.380471 0.309562,-0.690034 0.690033,-0.690034 h 13.436335 c 0.380736,0 0.690298,0.309563 0.690298,0.690034 v 3.117585 c 0,0.380471 -0.309562,0.690033 -0.690033,0.690033 h -13.4366 z"
         id="path7022" />
    </g>
    <g
       id="g7223"
       transform="matrix(0.0108377,0,0,0.0108377,81.692866,60.607508)"
       style="fill:#ffffff">
      <g
         id="g7165"
         style="fill:#ffffff">
        <path
           id="path7159"
           d="m 61.2,341.538 c 4.9,16.8 11.7,33 20.3,48.2 l -24.5,30.9 c -8,10.1 -7.1,24.5 1.9,33.6 l 42.2,42.2 c 9.1,9.1 23.5,9.899 33.6,1.899 l 30.7,-24.3 c 15.8,9.101 32.6,16.2 50.1,21.2 l 4.6,39.5 c 1.5,12.8 12.3,22.4 25.1,22.4 h 59.7 c 12.8,0 23.6,-9.601 25.1,-22.4 l 4.4,-38.1 c 18.8,-4.9 36.8,-12.2 53.7,-21.7 l 29.7,23.5 c 10.1,8 24.5,7.1 33.6,-1.9 l 42.2,-42.2 c 9.1,-9.1 9.9,-23.5 1.9,-33.6 l -23.1,-29.3 c 9.6,-16.601 17.1,-34.3 22.1,-52.8 l 35.6,-4.1 c 12.801,-1.5 22.4,-12.3 22.4,-25.1 v -59.7 c 0,-12.8 -9.6,-23.6 -22.4,-25.1 l -35.1,-4.1 c -4.801,-18.3 -12,-35.8 -21.199,-52.2 l 21.6,-27.3 c 8,-10.1 7.1,-24.5 -1.9,-33.6 l -42.1,-42.1 c -9.1,-9.1 -23.5,-9.9 -33.6,-1.9 l -26.5,21 c -17.2,-10.1 -35.601,-17.8 -54.9,-23 l -4,-34.3 c -1.5,-12.8 -12.3,-22.4 -25.1,-22.4 h -59.7 c -12.8,0 -23.6,9.6 -25.1,22.4 l -4,34.3 c -19.8,5.3 -38.7,13.3 -56.3,23.8 l -27.5,-21.8 c -10.1,-8 -24.5,-7.1 -33.6,1.9 l -42.2,42.2 c -9.1,9.1 -9.9,23.5 -1.9,33.6 l 23,29.1 c -9.2,16.6 -16.2,34.3 -20.8,52.7 l -36.8,4.2 c -12.8,1.5 -22.4,12.3 -22.4,25.1 v 59.7 c 0,12.8 9.6,23.6 22.4,25.1 z m 216.3,-161.5 c 54.4,0 98.7,44.3 98.7,98.7 0,54.4 -44.3,98.7 -98.7,98.7 -54.399,0 -98.7,-44.3 -98.7,-98.7 0,-54.4 44.3,-98.7 98.7,-98.7 z"
           inkscape:connector-curvature="0"
           style="fill:#ffffff" />
        <path
           id="path7161"
           d="m 867.699,356.238 -31.5,-26.6 c -9.699,-8.2 -24,-7.8 -33.199,0.9 l -17.4,16.3 c -14.699,-7.1 -30.299,-12.1 -46.4,-15 l -4.898,-24 c -2.5,-12.4 -14,-21 -26.602,-20 l -41.1,3.5 c -12.6,1.1 -22.5,11.4 -22.9,24.1 l -0.799,24.4 c -15.801,5.7 -30.701,13.5 -44.301,23.3 l -20.799,-13.8 c -10.602,-7 -24.701,-5 -32.9,4.7 l -26.6,31.7 c -8.201,9.7 -7.801,24 0.898,33.2 l 18.201,19.399 c -6.301,14.2 -10.801,29.101 -13.4,44.4 l -26,5.3 c -12.4,2.5 -21,14 -20,26.601 l 3.5,41.1 c 1.1,12.6 11.4,22.5 24.1,22.9 l 28.1,0.899 c 5.102,13.4 11.801,26.101 19.9,38 l -15.699,23.7 c -7,10.6 -5,24.7 4.699,32.9 l 31.5,26.6 c 9.701,8.2 24,7.8 33.201,-0.9 l 20.6,-19.3 c 13.5,6.3 27.699,11 42.299,13.8 l 5.701,28.2 c 2.5,12.4 14,21 26.6,20 l 41.1,-3.5 c 12.6,-1.1 22.5,-11.399 22.9,-24.1 l 0.9,-27.601 c 15,-5.3 29.199,-12.5 42.299,-21.399 l 22.701,15 c 10.6,7 24.699,5 32.9,-4.7 l 26.6,-31.5 c 8.199,-9.7 7.799,-24 -0.9,-33.2 L 872.7,592.138 c 6.701,-14.2 11.602,-29.2 14.4,-44.601 l 25,-5.1 c 12.4,-2.5 21,-14 20,-26.601 l -3.5,-41.1 c -1.1,-12.6 -11.4,-22.5 -24.1,-22.9 l -25.1,-0.8 c -5.201,-14.6 -12.201,-28.399 -20.9,-41.2 l 13.699,-20.6 c 7.201,-10.598 5.201,-24.798 -4.5,-32.998 z M 712.801,593.837 c -44.4,3.801 -83.602,-29.3 -87.301,-73.699 -3.801,-44.4 29.301,-83.601 73.699,-87.301 44.4,-3.8 83.602,29.301 87.301,73.7 3.801,44.401 -29.301,83.601 -73.699,87.3 z"
           inkscape:connector-curvature="0"
           style="fill:#ffffff" />
        <path
           id="path7163"
           d="m 205,704.438 c -12.6,1.3 -22.3,11.899 -22.4,24.6 l -0.3,25.3 c -0.2,12.7 9.2,23.5 21.8,25.101 l 18.6,2.399 c 3.1,11.301 7.5,22.101 13.2,32.301 l -12,14.8 c -8,9.899 -7.4,24.1 1.5,33.2 l 17.7,18.1 c 8.9,9.1 23.1,10.1 33.2,2.3 l 14.899,-11.5 c 10.5,6.2 21.601,11.101 33.2,14.5 l 2,19.2 c 1.3,12.6 11.9,22.3 24.6,22.4 l 25.301,0.3 c 12.699,0.2 23.5,-9.2 25.1,-21.8 l 2.3,-18.2 c 12.601,-3.101 24.601,-7.8 36,-14 l 14,11.3 c 9.9,8 24.101,7.4 33.201,-1.5 l 18.1,-17.7 c 9.1,-8.899 10.1,-23.1 2.301,-33.2 L 496.6,818.438 c 6.6,-11 11.701,-22.7 15.201,-35 l 16.6,-1.7 c 12.6,-1.3 22.299,-11.9 22.4,-24.6 l 0.299,-25.301 c 0.201,-12.699 -9.199,-23.5 -21.799,-25.1 l -16.201,-2.1 c -3.1,-12.2 -7.699,-24 -13.699,-35 l 10.1,-12.4 c 8,-9.9 7.4,-24.1 -1.5,-33.2 l -17.699,-18.1 c -8.9,-9.101 -23.102,-10.101 -33.201,-2.3 l -12.101,9.3 c -11.399,-6.9 -23.6,-12.2 -36.399,-15.8 L 407,581.437 c -1.3,-12.601 -11.899,-22.3 -24.6,-22.4 l -25.3,-0.3 c -12.7,-0.2 -23.5,9.2 -25.101,21.8 l -2,15.601 c -13.199,3.399 -25.899,8.6 -37.699,15.399 l -12.5,-10.2 c -9.9,-8 -24.101,-7.399 -33.201,1.5 l -18.2,17.801 c -9.1,8.899 -10.1,23.1 -2.3,33.199 l 10.7,13.801 c -6.2,11 -11.1,22.699 -14.3,35 z m 163.3,-28.601 c 36.3,0.4 65.399,30.301 65,66.601 -0.4,36.3 -30.301,65.399 -66.601,65 -36.3,-0.4 -65.399,-30.3 -65,-66.601 0.401,-36.299 30.301,-65.399 66.601,-65 z"
           inkscape:connector-curvature="0"
           style="fill:#ffffff" />
      </g>
      <g
         id="g7167"
         style="fill:#ffffff" />
      <g
         id="g7169"
         style="fill:#ffffff" />
      <g
         id="g7171"
         style="fill:#ffffff" />
      <g
         id="g7173"
         style="fill:#ffffff" />
      <g
         id="g7175"
         style="fill:#ffffff" />
      <g
         id="g7177"
         style="fill:#ffffff" />
      <g
         id="g7179"
         style="fill:#ffffff" />
      <g
         id="g7181"
         style="fill:#ffffff" />
      <g
         id="g7183"
         style="fill:#ffffff" />
      <g
         id="g7185"
         style="fill:#ffffff" />
      <g
         id="g7187"
         style="fill:#ffffff" />
      <g
         id="g7189"
         style="fill:#ffffff" />
      <g
         id="g7191"
         style="fill:#ffffff" />
      <g
         id="g7193"
         style="fill:#ffffff" />
      <g
         id="g7195"
         style="fill:#ffffff" />
    </g>
    <g
       id="g7460"
       transform="matrix(0.0204165,0,0,0.0204165,105.31407,47.523228)"
       style="fill:#ffffff">
      <g
         id="g7404"
         style="fill:#ffffff">
        <path
           id="path7402"
           d="m 441.7,196.601 c -20.9,0 -38.7,13.4 -45.4,32 h -70.1 c -2.1,-10.7 -6.4,-20.7 -12.2,-29.5 l 49.6,-49.6 c 17.9,8.4 39.9,5.3 54.7,-9.5 18.9,-18.9 18.9,-49.5 0,-68.3 -18.9,-18.9 -49.5,-18.9 -68.3,0 -14.8,14.8 -17.9,36.8 -9.5,54.7 l -49.6,49.6 c -8.8,-5.9 -18.8,-10.1 -29.5,-12.2 v -70.1 c 18.6,-6.7 32,-24.5 32,-45.4 0,-26.7 -21.6,-48.3 -48.3,-48.3 -26.7,0 -48.3,21.6 -48.3,48.3 0,20.9 13.4,38.7 32,45.4 v 70.1 c -10.7,2.1 -20.7,6.4 -29.5,12.2 l -49.6,-49.6 c 8.4,-17.9 5.3,-39.9 -9.5,-54.7 -18.9,-18.9 -49.5,-18.9 -68.3,0 -18.9,18.9 -18.9,49.5 0,68.3 14.8,14.8 36.8,17.9 54.7,9.5 l 49.6,49.6 c -5.9,8.8 -10.1,18.8 -12.2,29.5 H 93.9 c -6.7,-18.6 -24.5,-32 -45.4,-32 -26.9,0 -48.5,21.6 -48.5,48.3 0,26.7 21.6,48.3 48.3,48.3 20.9,0 38.7,-13.4 45.4,-32 h 70.1 c 2.1,10.7 6.4,20.7 12.2,29.5 l -49.6,49.6 c -17.9,-8.4 -39.9,-5.3 -54.7,9.5 -18.9,18.9 -18.9,49.5 0,68.3 18.9,18.9 49.5,18.9 68.3,0 14.8,-14.8 17.9,-36.8 9.5,-54.7 l 49.6,-49.6 c 8.8,5.9 18.8,10.1 29.5,12.2 v 70.1 c -18.6,6.7 -32,24.5 -32,45.4 0,26.7 21.6,48.3 48.3,48.3 26.7,0 48.3,-21.6 48.3,-48.3 0,-20.9 -13.4,-38.7 -32,-45.4 v -70.1 c 10.7,-2.1 20.7,-6.4 29.5,-12.2 l 49.6,49.6 c -8.4,17.9 -5.3,39.9 9.5,54.7 18.9,18.9 49.5,18.9 68.3,0 18.9,-18.9 18.9,-49.5 0,-68.3 -14.8,-14.8 -36.8,-17.9 -54.7,-9.5 l -49.6,-49.6 c 5.9,-8.8 10.1,-18.8 12.2,-29.5 h 70.1 c 6.7,18.6 24.5,32 45.4,32 26.7,0 48.3,-21.6 48.3,-48.3 0.2,-26.7 -21.4,-48.3 -48.1,-48.3 z m -196.7,95.4 c -26,0 -47.1,-21.1 -47.1,-47.1 0,-26 21.1,-47.1 47.1,-47.1 26,0 47.1,21.1 47.1,47.1 0,26 -21.1,47.1 -47.1,47.1 z"
           inkscape:connector-curvature="0"
           style="fill:#ffffff" />
      </g>
      <g
         id="g7406"
         style="fill:#ffffff" />
      <g
         id="g7408"
         style="fill:#ffffff" />
      <g
         id="g7410"
         style="fill:#ffffff" />
      <g
         id="g7412"
         style="fill:#ffffff" />
      <g
         id="g7414"
         style="fill:#ffffff" />
      <g
         id="g7416"
         style="fill:#ffffff" />
      <g
         id="g7418"
         style="fill:#ffffff" />
      <g
         id="g7420"
         style="fill:#ffffff" />
      <g
         id="g7422"
         style="fill:#ffffff" />
      <g
         id="g7424"
         style="fill:#ffffff" />
      <g
         id="g7426"
         style="fill:#ffffff" />
      <g
         id="g7428"
         style="fill:#ffffff" />
      <g
         id="g7430"
         style="fill:#ffffff" />
      <g
         id="g7432"
         style="fill:#ffffff" />
      <g
         id="g7434"
         style="fill:#ffffff" />
    </g>
    <text
       xml:space="preserve"
       style="font-style:normal;font-weight:normal;font-size:3.52777767px;line-height:52.91666412px;font-family:sans-serif;text-align:center;letter-spacing:0px;word-spacing:0px;text-anchor:middle;fill:#ffffff;fill-opacity:1;stroke:none;stroke-width:0.26458332px;stroke-linecap:butt;stroke-linejoin:miter;stroke-opacity:1"
       x="110.47343"
       y="63.876606"
       id="text7464"><tspan
         sodipodi:role="line"
         id="tspan7462"
         x="110.47343"
         y="63.876606"
         style="font-size:3.52777767px;text-align:center;text-anchor:middle;fill:#ffffff;stroke-width:0.26458332px">API</tspan></text>
    <text
       id="text7468"
       y="90.33493"
       x="110.36146"
       style="font-style:normal;font-weight:normal;font-size:3.52777767px;line-height:52.91666412px;font-family:sans-serif;text-align:center;letter-spacing:0px;word-spacing:0px;text-anchor:middle;fill:#ffffff;fill-opacity:1;stroke:none;stroke-width:0.26458332px;stroke-linecap:butt;stroke-linejoin:miter;stroke-opacity:1"
       xml:space="preserve"><tspan
         style="font-size:3.52777767px;text-align:center;text-anchor:middle;fill:#ffffff;stroke-width:0.26458332px"
         y="90.33493"
         x="110.36146"
         id="tspan7466"
         sodipodi:role="line">AMQP</tspan></text>
    <text
       xml:space="preserve"
       style="font-style:normal;font-weight:normal;font-size:3.52777767px;line-height:52.91666412px;font-family:sans-serif;text-align:center;letter-spacing:0px;word-spacing:0px;text-anchor:middle;fill:#ffffff;fill-opacity:1;stroke:none;stroke-width:0.26458332px;stroke-linecap:butt;stroke-linejoin:miter;stroke-opacity:1"
       x="110.19954"
       y="116.79325"
       id="text7487"><tspan
         sodipodi:role="line"
         id="tspan7485"
         x="110.19954"
         y="116.79325"
         style="font-size:3.52777767px;text-align:center;text-anchor:middle;fill:#ffffff;stroke-width:0.26458332px">Scheduler</tspan></text>
    <text
       xml:space="preserve"
       style="font-style:normal;font-weight:normal;font-size:3.52777767px;line-height:52.91666412px;font-family:sans-serif;text-align:center;letter-spacing:0px;word-spacing:0px;text-anchor:middle;fill:#ffffff;fill-opacity:1;stroke:none;stroke-width:0.26458332px;stroke-linecap:butt;stroke-linejoin:miter;stroke-opacity:1"
       x="86.646889"
       y="76.047432"
       id="text7491"><tspan
         sodipodi:role="line"
         id="tspan7489"
         x="86.646889"
         y="76.047432"
         style="font-size:3.52777767px;text-align:center;text-anchor:middle;fill:#ffffff;stroke-width:0.26458332px">Conductor</tspan></text>
    <text
       id="text7495"
       y="103.56408"
       x="86.66497"
       style="font-style:normal;font-weight:normal;font-size:3.52777767px;line-height:52.91666412px;font-family:sans-serif;text-align:center;letter-spacing:0px;word-spacing:0px;text-anchor:middle;fill:#ffffff;fill-opacity:1;stroke:none;stroke-width:0.26458332px;stroke-linecap:butt;stroke-linejoin:miter;stroke-opacity:1"
       xml:space="preserve"><tspan
         style="font-size:3.52777767px;text-align:center;text-anchor:middle;fill:#ffffff;stroke-width:0.26458332px"
         y="103.56408"
         x="86.66497"
         id="tspan7493"
         sodipodi:role="line">Database</tspan></text>
    <text
       id="text7499"
       y="103.56409"
       x="133.71259"
       style="font-style:normal;font-weight:normal;font-size:3.52777767px;line-height:52.91666412px;font-family:sans-serif;text-align:center;letter-spacing:0px;word-spacing:0px;text-anchor:middle;fill:#ffffff;fill-opacity:1;stroke:none;stroke-width:0.26458332px;stroke-linecap:butt;stroke-linejoin:miter;stroke-opacity:1"
       xml:space="preserve"><tspan
         style="font-size:3.52777767px;text-align:center;text-anchor:middle;fill:#ffffff;stroke-width:0.26458332px"
         y="103.56409"
         x="133.71259"
         id="tspan7497"
         sodipodi:role="line">Hypervisor</tspan></text>
    <text
       xml:space="preserve"
       style="font-style:normal;font-weight:normal;font-size:3.52777767px;line-height:52.91666412px;font-family:sans-serif;text-align:center;letter-spacing:0px;word-spacing:0px;text-anchor:middle;fill:#ffffff;fill-opacity:1;stroke:none;stroke-width:0.26458332px;stroke-linecap:butt;stroke-linejoin:miter;stroke-opacity:1"
       x="133.8788"
       y="95.097427"
       id="text7503"><tspan
         sodipodi:role="line"
         id="tspan7501"
         x="133.8788"
         y="95.097427"
         style="font-size:3.52777767px;text-align:center;text-anchor:middle;fill:#ffffff;stroke-width:0.26458332px">Compute</tspan></text>
    <rect
       style="fill:#ffffff;fill-opacity:1;stroke:#000000;stroke-width:0.26458332;stroke-opacity:1"
       id="rect7688"
       width="2.4722431"
       height="6.2140164"
       x="109.20607"
       y="66.76619"
       ry="1.2361215" />
    <rect
       ry="1.2361215"
       y="93.753677"
       x="109.20607"
       height="6.2140164"
       width="2.4722431"
       id="rect7690"
       style="fill:#ffffff;fill-opacity:1;stroke:#000000;stroke-width:0.26458332;stroke-opacity:1" />
    <rect
       ry="1.2361215"
       y="146.95726"
       x="20.715158"
       height="6.2140164"
       width="2.4722431"
       id="rect7692"
       style="fill:#ffffff;fill-opacity:1;stroke:#000000;stroke-width:0.26458332;stroke-opacity:1"
       transform="matrix(-0.47054686,0.88237501,0.88237501,0.47054686,0,0)" />
    <rect
       transform="rotate(125.71197)"
       style="fill:#ffffff;fill-opacity:1;stroke:#000000;stroke-width:0.26458332;stroke-opacity:1"
       id="rect7694"
       width="2.4722431"
       height="6.2140164"
       x="25.634607"
       y="-143.4537"
       ry="1.2361215" />
    <rect
       style="fill:#ffffff;fill-opacity:1;stroke:#000000;stroke-width:0.26458332;stroke-opacity:1"
       id="rect7696"
       width="2.4722431"
       height="6.2140164"
       x="85.393585"
       y="79.995354"
       ry="1.2361215" />
    <rect
       transform="rotate(-55.982255)"
       style="fill:#ffffff;fill-opacity:1;stroke:#000000;stroke-width:0.26458332;stroke-opacity:1"
       id="rect7698"
       width="2.4722431"
       height="6.2140164"
       x="-9.5795183"
       y="121.7243"
       ry="1.2361215" />
    <path
       style="fill:#ffffff;fill-opacity:1;fill-rule:evenodd;stroke:#ffffff;stroke-width:0.26458332px;stroke-linecap:butt;stroke-linejoin:miter;stroke-opacity:1"
       d="m 119.72981,96.967646 h 28.19693"
       id="path7730"
       inkscape:connector-curvature="0" />
  </g>
</svg>
