<?xml version="1.0" encoding="UTF-8" standalone="no"?>
<!-- Created with Inkscape (http://www.inkscape.org/) -->

<svg
   xmlns:dc="http://purl.org/dc/elements/1.1/"
   xmlns:cc="http://creativecommons.org/ns#"
   xmlns:rdf="http://www.w3.org/1999/02/22-rdf-syntax-ns#"
   xmlns:svg="http://www.w3.org/2000/svg"
   xmlns="http://www.w3.org/2000/svg"
   xmlns:sodipodi="http://sodipodi.sourceforge.net/DTD/sodipodi-0.dtd"
   xmlns:inkscape="http://www.inkscape.org/namespaces/inkscape"
   width="102.30848mm"
   height="102.30848mm"
   viewBox="0 0 102.30848 102.30848"
   version="1.1"
   id="svg8"
   inkscape:version="0.92.0 r"
   sodipodi:docname="nova_components3.svg">
  <defs
     id="defs2" />
  <sodipodi:namedview
     id="base"
     pagecolor="#ffffff"
     bordercolor="#666666"
     borderopacity="1.0"
     inkscape:pageopacity="0.0"
     inkscape:pageshadow="2"
     inkscape:zoom="1.979899"
     inkscape:cx="161.41617"
     inkscape:cy="237.59518"
     inkscape:document-units="mm"
     inkscape:current-layer="layer1"
     showgrid="false"
     inkscape:window-width="2560"
     inkscape:window-height="1600"
     inkscape:window-x="0"
     inkscape:window-y="0"
     inkscape:window-maximized="0"
     fit-margin-top="0"
     fit-margin-left="0"
     fit-margin-right="0"
     fit-margin-bottom="0" />
  <metadata
     id="metadata5">
    <rdf:RDF>
      <cc:Work
         rdf:about="">
        <dc:format>image/svg+xml</dc:format>
        <dc:type
           rdf:resource="http://purl.org/dc/dcmitype/StillImage" />
        <dc:title></dc:title>
      </cc:Work>
    </rdf:RDF>
  </metadata>
  <g
     inkscape:label="Layer 1"
     inkscape:groupmode="layer"
     id="layer1"
     transform="translate(-59.159854,-32.34417)">
    <path
       transform="rotate(-1.1339144,-1919.4917,1267.6926)"
       sodipodi:type="star"
       style="fill:#000000;fill-opacity:1;stroke-width:0.09630936"
       id="path7700"
       sodipodi:sides="6"
       sodipodi:cx="133.88397"
       sodipodi:cy="96.966911"
       sodipodi:r1="12.220682"
       sodipodi:r2="14.14881"
       sodipodi:arg1="-1.6095999"
       sodipodi:arg2="-1.0276701"
       inkscape:flatsided="false"
       inkscape:rounded="0.0094664047"
       inkscape:randomized="0"
       d="m 133.40989,84.755428 c 0.0737,0.0014 7.72118,0.06437 7.7864,0.09873 0.0533,0.02807 2.997,5.543707 3.02609,5.596443 0.0356,0.06455 3.80484,6.718926 3.80771,6.792586 0.002,0.06018 -3.30249,5.367336 -3.33362,5.418896 -0.0381,0.0631 -3.91634,6.65455 -3.9787,6.69386 -0.051,0.0321 -6.2995,-0.17637 -6.35971,-0.17755 -0.0737,-0.001 -7.72118,-0.0644 -7.7864,-0.0987 -0.0533,-0.0281 -2.99701,-5.54371 -3.0261,-5.59645 -0.0356,-0.0645 -3.80484,-6.718922 -3.8077,-6.792581 -0.002,-0.06018 3.30249,-5.367338 3.33361,-5.418898 0.0381,-0.06311 3.91634,-6.654552 3.9787,-6.693859 0.051,-0.03212 6.2995,0.17637 6.35972,0.177546 z"
       inkscape:transform-center-x="0.043014202"
       inkscape:transform-center-y="-2.1733012" />
    <path
       inkscape:transform-center-y="-2.1733012"
       inkscape:transform-center-x="0.043014202"
       d="m 133.40989,84.755428 c 0.0737,0.0014 7.72118,0.06437 7.7864,0.09873 0.0533,0.02807 2.997,5.543707 3.02609,5.596443 0.0356,0.06455 3.80484,6.718926 3.80771,6.792586 0.002,0.06018 -3.30249,5.367336 -3.33362,5.418896 -0.0381,0.0631 -3.91634,6.65455 -3.9787,6.69386 -0.051,0.0321 -6.2995,-0.17637 -6.35971,-0.17755 -0.0737,-0.001 -7.72118,-0.0644 -7.7864,-0.0987 -0.0533,-0.0281 -2.99701,-5.54371 -3.0261,-5.59645 -0.0356,-0.0645 -3.80484,-6.718922 -3.8077,-6.792581 -0.002,-0.06018 3.30249,-5.367338 3.33361,-5.418898 0.0381,-0.06311 3.91634,-6.654552 3.9787,-6.693859 0.051,-0.03212 6.2995,0.17637 6.35972,0.177546 z"
       inkscape:randomized="0"
       inkscape:rounded="0.0094664047"
       inkscape:flatsided="false"
       sodipodi:arg2="-1.0276701"
       sodipodi:arg1="-1.6095999"
       sodipodi:r2="14.14881"
       sodipodi:r1="12.220682"
       sodipodi:cy="96.966911"
       sodipodi:cx="133.88397"
       sodipodi:sides="6"
       id="path7704"
       style="fill:#000000;fill-opacity:1;stroke-width:0.09630936"
       sodipodi:type="star"
       transform="rotate(-1.1339144,-1250.7458,2465.3548)" />
    <path
       transform="rotate(-1.1339144,110.31409,2478.8233)"
       sodipodi:type="star"
       style="fill:#000000;fill-opacity:1;stroke-width:0.09630936"
       id="path7710"
       sodipodi:sides="6"
       sodipodi:cx="133.88397"
       sodipodi:cy="96.966911"
       sodipodi:r1="12.220682"
       sodipodi:r2="14.14881"
       sodipodi:arg1="-1.6095999"
       sodipodi:arg2="-1.0276701"
       inkscape:flatsided="false"
       inkscape:rounded="0.0094664047"
       inkscape:randomized="0"
       d="m 133.40989,84.755428 c 0.0737,0.0014 7.72118,0.06437 7.7864,0.09873 0.0533,0.02807 2.997,5.543707 3.02609,5.596443 0.0356,0.06455 3.80484,6.718926 3.80771,6.792586 0.002,0.06018 -3.30249,5.367336 -3.33362,5.418896 -0.0381,0.0631 -3.91634,6.65455 -3.9787,6.69386 -0.051,0.0321 -6.2995,-0.17637 -6.35971,-0.17755 -0.0737,-0.001 -7.72118,-0.0644 -7.7864,-0.0987 -0.0533,-0.0281 -2.99701,-5.54371 -3.0261,-5.59645 -0.0356,-0.0645 -3.80484,-6.718922 -3.8077,-6.792581 -0.002,-0.06018 3.30249,-5.367338 3.33361,-5.418898 0.0381,-0.06311 3.91634,-6.654552 3.9787,-6.693859 0.051,-0.03212 6.2995,0.17637 6.35972,0.177546 z"
       inkscape:transform-center-x="0.043014202"
       inkscape:transform-center-y="-2.1733012" />
    <path
       inkscape:transform-center-y="-2.1733012"
       inkscape:transform-center-x="0.043014202"
       d="m 133.40989,84.755428 c 0.0737,0.0014 7.72118,0.06437 7.7864,0.09873 0.0533,0.02807 2.997,5.543707 3.02609,5.596443 0.0356,0.06455 3.80484,6.718926 3.80771,6.792586 0.002,0.06018 -3.30249,5.367336 -3.33362,5.418896 -0.0381,0.0631 -3.91634,6.65455 -3.9787,6.69386 -0.051,0.0321 -6.2995,-0.17637 -6.35971,-0.17755 -0.0737,-0.001 -7.72118,-0.0644 -7.7864,-0.0987 -0.0533,-0.0281 -2.99701,-5.54371 -3.0261,-5.59645 -0.0356,-0.0645 -3.80484,-6.718922 -3.8077,-6.792581 -0.002,-0.06018 3.30249,-5.367338 3.33361,-5.418898 0.0381,-0.06311 3.91634,-6.654552 3.9787,-6.693859 0.051,-0.03212 6.2995,0.17637 6.35972,0.177546 z"
       inkscape:randomized="0"
       inkscape:rounded="0.0094664047"
       inkscape:flatsided="false"
       sodipodi:arg2="-1.0276701"
       sodipodi:arg1="-1.6095999"
       sodipodi:r2="14.14881"
       sodipodi:r1="12.220682"
       sodipodi:cy="96.966911"
       sodipodi:cx="133.88397"
       sodipodi:sides="6"
       id="path7718"
       style="fill:#000000;fill-opacity:1;stroke-width:0.09630936"
       sodipodi:type="star"
       transform="rotate(-1.1339144,802.62916,1294.6296)" />
    <path
       transform="rotate(-1.1339144,-558.43072,1281.1611)"
       sodipodi:type="star"
       style="fill:#000000;fill-opacity:1;stroke-width:0.09630936"
       id="path7728"
       sodipodi:sides="6"
       sodipodi:cx="133.88397"
       sodipodi:cy="96.966911"
       sodipodi:r1="12.220682"
       sodipodi:r2="14.14881"
       sodipodi:arg1="-1.6095999"
       sodipodi:arg2="-1.0276701"
       inkscape:flatsided="false"
       inkscape:rounded="0.0094664047"
       inkscape:randomized="0"
       d="m 133.40989,84.755428 c 0.0737,0.0014 7.72118,0.06437 7.7864,0.09873 0.0533,0.02807 2.997,5.543707 3.02609,5.596443 0.0356,0.06455 3.80484,6.718926 3.80771,6.792586 0.002,0.06018 -3.30249,5.367336 -3.33362,5.418896 -0.0381,0.0631 -3.91634,6.65455 -3.9787,6.69386 -0.051,0.0321 -6.2995,-0.17637 -6.35971,-0.17755 -0.0737,-0.001 -7.72118,-0.0644 -7.7864,-0.0987 -0.0533,-0.0281 -2.99701,-5.54371 -3.0261,-5.59645 -0.0356,-0.0645 -3.80484,-6.718922 -3.8077,-6.792581 -0.002,-0.06018 3.30249,-5.367338 3.33361,-5.418898 0.0381,-0.06311 3.91634,-6.654552 3.9787,-6.693859 0.051,-0.03212 6.2995,0.17637 6.35972,0.177546 z"
       inkscape:transform-center-x="0.043014202"
       inkscape:transform-center-y="-2.1733012" />
    <path
       inkscape:transform-center-y="-2.1733012"
       inkscape:transform-center-x="0.043014202"
       d="m 133.40989,84.755428 c 0.0737,0.0014 7.72118,0.06437 7.7864,0.09873 0.0533,0.02807 2.997,5.543707 3.02609,5.596443 0.0356,0.06455 3.80484,6.718926 3.80771,6.792586 0.002,0.06018 -3.30249,5.367336 -3.33362,5.418896 -0.0381,0.0631 -3.91634,6.65455 -3.9787,6.69386 -0.051,0.0321 -6.2995,-0.17637 -6.35971,-0.17755 -0.0737,-0.001 -7.72118,-0.0644 -7.7864,-0.0987 -0.0533,-0.0281 -2.99701,-5.54371 -3.0261,-5.59645 -0.0356,-0.0645 -3.80484,-6.718922 -3.8077,-6.792581 -0.002,-0.06018 3.30249,-5.367338 3.33361,-5.418898 0.0381,-0.06311 3.91634,-6.654552 3.9787,-6.693859 0.051,-0.03212 6.2995,0.17637 6.35972,0.177546 z"
       inkscape:randomized="0"
       inkscape:rounded="0.0094664047"
       inkscape:flatsided="false"
       sodipodi:arg2="-1.0276701"
       sodipodi:arg1="-1.6095999"
       sodipodi:r2="14.14881"
       sodipodi:r1="12.220682"
       sodipodi:cy="96.966911"
       sodipodi:cx="133.88397"
       sodipodi:sides="6"
       id="path5417"
       style="fill:#000000;fill-opacity:1;stroke-width:0.09630936"
       sodipodi:type="star"
       transform="rotate(-1.1339144,133.88397,99.140638)" />
    <g
       id="g5626"
       transform="matrix(0.18181818,0,0,0.18181818,81.744209,87.566797)"
       style="fill:#ffffff">
      <path
         id="path5571"
         d="M 52.354,8.51 C 51.196,4.22 42.577,0 27.5,0 12.423,0 3.803,4.22 2.646,8.51 2.562,8.657 2.5,8.818 2.5,9 V 9.5 21 21.5 22 33 33.5 34 46 c 0,0.162 0.043,0.315 0.117,0.451 C 3.798,51.346 14.364,55 27.5,55 40.606,55 51.155,51.361 52.375,46.484 52.455,46.341 52.5,46.176 52.5,46 V 34 33.5 33 22 21.5 21 9.5 9 c 0,-0.182 -0.062,-0.343 -0.146,-0.49 z m -1.933,25.475 c -0.028,0.121 -0.067,0.241 -0.116,0.363 -0.04,0.099 -0.089,0.198 -0.143,0.297 -0.067,0.123 -0.142,0.246 -0.231,0.369 -0.066,0.093 -0.141,0.185 -0.219,0.277 -0.111,0.131 -0.229,0.262 -0.363,0.392 -0.081,0.079 -0.17,0.157 -0.26,0.236 -0.164,0.143 -0.335,0.285 -0.526,0.426 -0.082,0.061 -0.17,0.12 -0.257,0.18 -0.226,0.156 -0.462,0.311 -0.721,0.463 -0.068,0.041 -0.141,0.08 -0.212,0.12 -0.298,0.168 -0.609,0.335 -0.945,0.497 -0.043,0.021 -0.088,0.041 -0.132,0.061 -0.375,0.177 -0.767,0.351 -1.186,0.519 -0.012,0.005 -0.024,0.009 -0.036,0.014 -2.271,0.907 -5.176,1.67 -8.561,2.17 -0.017,0.002 -0.034,0.004 -0.051,0.007 -0.658,0.097 -1.333,0.183 -2.026,0.259 -0.113,0.012 -0.232,0.02 -0.346,0.032 -0.605,0.063 -1.217,0.121 -1.847,0.167 -0.288,0.021 -0.59,0.031 -0.883,0.049 -0.474,0.028 -0.943,0.059 -1.429,0.076 C 29.137,40.984 28.327,41 27.5,41 26.673,41 25.863,40.984 25.068,40.956 24.582,40.939 24.113,40.907 23.639,40.88 23.346,40.863 23.044,40.852 22.756,40.831 22.126,40.785 21.514,40.727 20.909,40.664 20.795,40.652 20.676,40.644 20.563,40.632 19.87,40.556 19.195,40.469 18.537,40.373 18.52,40.371 18.503,40.369 18.486,40.366 15.101,39.866 12.196,39.103 9.925,38.196 9.913,38.192 9.901,38.187 9.889,38.182 9.47,38.014 9.077,37.84 8.703,37.663 8.66,37.642 8.614,37.622 8.571,37.602 8.235,37.44 7.924,37.274 7.626,37.105 7.556,37.065 7.482,37.026 7.414,36.985 7.155,36.833 6.919,36.678 6.693,36.522 6.607,36.462 6.518,36.403 6.436,36.342 6.245,36.201 6.074,36.059 5.91,35.916 5.821,35.838 5.731,35.76 5.65,35.68 5.516,35.55 5.398,35.42 5.287,35.288 5.209,35.196 5.134,35.104 5.068,35.011 4.98,34.888 4.905,34.765 4.837,34.642 4.783,34.543 4.735,34.444 4.694,34.345 4.645,34.224 4.606,34.103 4.578,33.982 4.541,33.823 4.5,33.661 4.5,33.5 4.5,33.387 4.513,33.274 4.531,33.162 4.556,33.011 4.542,32.86 4.5,32.717 v -7.424 c 0.028,0.026 0.063,0.051 0.092,0.077 0.218,0.192 0.44,0.383 0.69,0.567 C 9.049,28.786 16.582,31 27.5,31 c 10.872,0 18.386,-2.196 22.169,-5.028 0.302,-0.22 0.574,-0.447 0.83,-0.678 L 50.5,25.293 v 7.424 c -0.042,0.143 -0.056,0.294 -0.031,0.445 0.019,0.112 0.031,0.225 0.031,0.338 0,0.161 -0.041,0.323 -0.079,0.485 z M 50.5,13.293 v 7.424 c -0.042,0.143 -0.056,0.294 -0.031,0.445 0.019,0.112 0.031,0.225 0.031,0.338 0,0.161 -0.041,0.323 -0.079,0.485 -0.028,0.121 -0.067,0.241 -0.116,0.363 -0.04,0.099 -0.089,0.198 -0.143,0.297 -0.067,0.123 -0.142,0.246 -0.231,0.369 -0.066,0.093 -0.141,0.185 -0.219,0.277 -0.111,0.131 -0.229,0.262 -0.363,0.392 -0.081,0.079 -0.17,0.157 -0.26,0.236 -0.164,0.143 -0.335,0.285 -0.526,0.426 -0.082,0.061 -0.17,0.12 -0.257,0.18 -0.226,0.156 -0.462,0.311 -0.721,0.463 -0.068,0.041 -0.141,0.08 -0.212,0.12 -0.298,0.168 -0.609,0.335 -0.945,0.497 -0.043,0.021 -0.088,0.041 -0.132,0.061 -0.375,0.177 -0.767,0.351 -1.186,0.519 -0.012,0.005 -0.024,0.009 -0.036,0.014 -2.271,0.907 -5.176,1.67 -8.561,2.17 -0.017,0.002 -0.034,0.004 -0.051,0.007 -0.658,0.097 -1.333,0.183 -2.026,0.259 -0.113,0.012 -0.232,0.02 -0.346,0.032 -0.605,0.063 -1.217,0.121 -1.847,0.167 -0.288,0.021 -0.59,0.031 -0.883,0.049 -0.474,0.028 -0.943,0.059 -1.429,0.076 C 29.137,28.984 28.327,29 27.5,29 26.673,29 25.863,28.984 25.068,28.956 24.582,28.939 24.113,28.907 23.639,28.88 23.346,28.863 23.044,28.852 22.756,28.831 22.126,28.785 21.514,28.727 20.909,28.664 20.795,28.652 20.676,28.644 20.563,28.632 19.87,28.556 19.195,28.469 18.537,28.373 18.52,28.371 18.503,28.369 18.486,28.366 15.101,27.866 12.196,27.103 9.925,26.196 9.913,26.192 9.901,26.187 9.889,26.182 9.47,26.014 9.077,25.84 8.703,25.663 8.66,25.642 8.614,25.622 8.571,25.602 8.235,25.44 7.924,25.274 7.626,25.105 7.556,25.065 7.482,25.026 7.414,24.985 7.155,24.833 6.919,24.678 6.693,24.522 6.607,24.462 6.518,24.403 6.436,24.342 6.245,24.201 6.074,24.059 5.91,23.916 5.821,23.838 5.731,23.76 5.65,23.68 5.516,23.55 5.398,23.42 5.287,23.288 5.209,23.196 5.134,23.104 5.068,23.011 4.98,22.888 4.905,22.765 4.837,22.642 4.783,22.543 4.735,22.444 4.694,22.345 4.645,22.224 4.606,22.103 4.578,21.982 4.541,21.823 4.5,21.661 4.5,21.5 4.5,21.387 4.513,21.274 4.531,21.162 4.556,21.011 4.542,20.86 4.5,20.717 v -7.424 c 0.12,0.109 0.257,0.216 0.387,0.324 0.072,0.06 0.139,0.12 0.215,0.18 0.3,0.236 0.624,0.469 0.975,0.696 0.073,0.047 0.155,0.093 0.231,0.14 0.294,0.183 0.605,0.362 0.932,0.538 0.121,0.065 0.242,0.129 0.367,0.193 0.365,0.186 0.748,0.367 1.151,0.542 0.066,0.029 0.126,0.059 0.193,0.087 0.469,0.199 0.967,0.389 1.485,0.573 0.143,0.051 0.293,0.099 0.44,0.149 0.412,0.139 0.838,0.272 1.279,0.401 0.159,0.046 0.315,0.094 0.478,0.138 0.585,0.162 1.189,0.316 1.823,0.458 0.087,0.02 0.181,0.036 0.269,0.055 0.559,0.122 1.139,0.235 1.735,0.341 0.202,0.036 0.407,0.07 0.613,0.104 0.567,0.093 1.151,0.178 1.75,0.256 0.154,0.02 0.301,0.043 0.457,0.062 0.744,0.09 1.514,0.167 2.305,0.233 0.195,0.016 0.398,0.028 0.596,0.042 0.633,0.046 1.28,0.084 1.942,0.114 0.241,0.011 0.481,0.022 0.727,0.031 0.862,0.029 1.74,0.05 2.65,0.05 0.91,0 1.788,-0.021 2.65,-0.05 0.245,-0.009 0.485,-0.02 0.727,-0.031 0.662,-0.03 1.309,-0.068 1.942,-0.114 0.198,-0.015 0.4,-0.026 0.596,-0.042 0.791,-0.065 1.561,-0.143 2.305,-0.233 0.156,-0.019 0.303,-0.042 0.457,-0.062 0.599,-0.078 1.182,-0.163 1.75,-0.256 0.206,-0.034 0.411,-0.068 0.613,-0.104 0.596,-0.106 1.176,-0.219 1.735,-0.341 0.088,-0.019 0.182,-0.036 0.269,-0.055 0.634,-0.142 1.238,-0.297 1.823,-0.458 0.163,-0.045 0.319,-0.092 0.478,-0.138 0.441,-0.129 0.867,-0.262 1.279,-0.401 0.147,-0.05 0.297,-0.098 0.44,-0.149 0.518,-0.184 1.017,-0.374 1.485,-0.573 0.067,-0.028 0.127,-0.058 0.193,-0.087 0.403,-0.176 0.786,-0.356 1.151,-0.542 0.125,-0.064 0.247,-0.128 0.367,-0.193 0.327,-0.175 0.638,-0.354 0.932,-0.538 0.076,-0.047 0.158,-0.093 0.231,-0.14 0.351,-0.227 0.675,-0.459 0.975,-0.696 0.075,-0.06 0.142,-0.12 0.215,-0.18 0.13,-0.108 0.267,-0.215 0.387,-0.324 z M 27.5,2 c 13.555,0 23,3.952 23,7.5 0,3.548 -9.445,7.5 -23,7.5 C 13.945,17 4.5,13.048 4.5,9.5 4.5,5.952 13.945,2 27.5,2 Z m 23,43.703 c -0.014,0.044 -0.024,0.089 -0.032,0.135 C 49.901,49.297 40.536,53 27.5,53 14.464,53 5.099,49.297 4.532,45.838 4.524,45.793 4.513,45.749 4.5,45.707 v -8.414 c 0.028,0.026 0.063,0.051 0.092,0.077 0.218,0.192 0.44,0.383 0.69,0.567 C 9.049,40.786 16.582,43 27.5,43 c 10.872,0 18.386,-2.196 22.169,-5.028 0.302,-0.22 0.574,-0.447 0.83,-0.678 L 50.5,37.293 Z"
         inkscape:connector-curvature="0"
         style="fill:#ffffff" />
      <g
         id="g5573"
         style="fill:#ffffff" />
      <g
         id="g5575"
         style="fill:#ffffff" />
      <g
         id="g5577"
         style="fill:#ffffff" />
      <g
         id="g5579"
         style="fill:#ffffff" />
      <g
         id="g5581"
         style="fill:#ffffff" />
      <g
         id="g5583"
         style="fill:#ffffff" />
      <g
         id="g5585"
         style="fill:#ffffff" />
      <g
         id="g5587"
         style="fill:#ffffff" />
      <g
         id="g5589"
         style="fill:#ffffff" />
      <g
         id="g5591"
         style="fill:#ffffff" />
      <g
         id="g5593"
         style="fill:#ffffff" />
      <g
         id="g5595"
         style="fill:#ffffff" />
      <g
         id="g5597"
         style="fill:#ffffff" />
      <g
         id="g5599"
         style="fill:#ffffff" />
      <g
         id="g5601"
         style="fill:#ffffff" />
    </g>
    <g
       id="g6928"
       transform="matrix(0.02717391,0,0,0.02717391,105.31409,101.9281)"
       style="fill:#ffffff">
      <g
         id="g6862"
         style="fill:#ffffff">
        <g
           id="g6860"
           style="fill:#ffffff">
          <g
             id="g6858"
             style="fill:#ffffff">
            <path
               id="path6840"
               d="m 184,60 c 4.4,0 8,-3.6 8,-8 v -4 c 0,-4.4 -3.6,-8 -8,-8 -4.4,0 -8,3.6 -8,8 v 4 c 0,4.4 3.6,8 8,8 z"
               inkscape:connector-curvature="0"
               style="fill:#ffffff" />
            <path
               id="path6842"
               d="m 184,308 c -4.4,0 -8,3.6 -8,8 v 4 c 0,4.4 3.6,8 8,8 4.4,0 8,-3.6 8,-8 v -4 c 0,-4.4 -3.6,-8 -8,-8 z"
               inkscape:connector-curvature="0"
               style="fill:#ffffff" />
            <path
               id="path6844"
               d="m 52,176 h -4 c -4.4,0 -8,3.6 -8,8 0,4.4 3.6,8 8,8 h 4 c 4.4,0 8,-3.6 8,-8 0,-4.4 -3.6,-8 -8,-8 z"
               inkscape:connector-curvature="0"
               style="fill:#ffffff" />
            <path
               id="path6846"
               d="m 320,176 h -4 c -4.4,0 -8,3.6 -8,8 0,4.4 3.6,8 8,8 h 4 c 4.4,0 8,-3.6 8,-8 0,-4.4 -3.6,-8 -8,-8 z"
               inkscape:connector-curvature="0"
               style="fill:#ffffff" />
            <path
               id="path6848"
               d="m 93.6,82.4 c -3.2,-3.2 -8,-3.2 -11.2,0 -3.2,3.2 -3.2,8 0,11.2 l 2.8,2.8 c 1.6,1.6 3.6,2.4 5.6,2.4 2,0 4,-0.8 5.6,-2.4 3.2,-3.2 3.2,-8 0,-11.2 z"
               inkscape:connector-curvature="0"
               style="fill:#ffffff" />
            <path
               id="path6850"
               d="m 85.2,271.6 -2.8,2.8 c -3.2,3.2 -3.2,8 0,11.2 1.6,1.6 3.6,2.4 5.6,2.4 2,0 4,-0.8 5.6,-2.4 l 2.8,-2.8 c 3.2,-3.2 3.2,-8 0,-11.2 -3.2,-3.2 -8,-3.2 -11.2,0 z"
               inkscape:connector-curvature="0"
               style="fill:#ffffff" />
            <path
               id="path6852"
               d="m 274.4,82.4 -2.8,2.8 c -3.2,3.2 -3.2,8 0,11.2 1.6,1.6 3.6,2.4 5.6,2.4 2,0 4,-0.8 5.6,-2.4 l 2.8,-2.8 c 3.2,-3.2 3.2,-8 0,-11.2 -3.2,-3.2 -8,-3.2 -11.2,0 z"
               inkscape:connector-curvature="0"
               style="fill:#ffffff" />
            <path
               id="path6854"
               d="M 192,180.8 V 108 c 0,-4.4 -3.6,-8 -8,-8 -4.4,0 -8,3.6 -8,8 v 76 c 0,2 0.8,4 2.4,5.6 l 87.6,87.6 c 1.6,1.6 3.6,2.4 5.6,2.4 2,0 4,-0.8 5.6,-2.4 3.2,-3.2 3.2,-8 0,-11.2 z"
               inkscape:connector-curvature="0"
               style="fill:#ffffff" />
            <path
               id="path6856"
               d="M 184,0 C 82.4,0 0,82.4 0,184 0,285.6 82.4,368 184,368 285.6,368 368,285.6 368,184 368,82.4 285.6,0 184,0 Z m 0,352 C 91.2,352 16,276.8 16,184 16,91.2 91.2,16 184,16 c 92.8,0 168,75.2 168,168 0,92.8 -75.2,168 -168,168 z"
               inkscape:connector-curvature="0"
               style="fill:#ffffff" />
          </g>
        </g>
      </g>
      <g
         id="g6864"
         style="fill:#ffffff" />
      <g
         id="g6866"
         style="fill:#ffffff" />
      <g
         id="g6868"
         style="fill:#ffffff" />
      <g
         id="g6870"
         style="fill:#ffffff" />
      <g
         id="g6872"
         style="fill:#ffffff" />
      <g
         id="g6874"
         style="fill:#ffffff" />
      <g
         id="g6876"
         style="fill:#ffffff" />
      <g
         id="g6878"
         style="fill:#ffffff" />
      <g
         id="g6880"
         style="fill:#ffffff" />
      <g
         id="g6882"
         style="fill:#ffffff" />
      <g
         id="g6884"
         style="fill:#ffffff" />
      <g
         id="g6886"
         style="fill:#ffffff" />
      <g
         id="g6888"
         style="fill:#ffffff" />
      <g
         id="g6890"
         style="fill:#ffffff" />
      <g
         id="g6892"
         style="fill:#ffffff" />
    </g>
    <g
       id="g6998"
       transform="matrix(0.35531552,0,0,0.35531552,104.53879,74.215807)"
       style="fill:#ffffff">
      <g
         id="g6938"
         style="fill:#ffffff">
        <g
           id="c30_paper"
           style="fill:#ffffff">
          <path
             id="path6930"
             d="M 0,11.257 16.254,2.182 32.508,11.257 16.254,20.331 Z"
             inkscape:connector-curvature="0"
             style="fill:#ffffff" />
          <path
             id="path6932"
             d="m 0,16.255 1.908,-1.614 14.346,7.715 14.32,-7.748 1.934,1.647 -16.254,9.072 z"
             inkscape:connector-curvature="0"
             style="fill:#ffffff" />
          <path
             id="path6934"
             d="m 0,21.254 1.908,-1.615 14.346,7.716 14.32,-7.75 1.934,1.649 -16.254,9.072 z"
             inkscape:connector-curvature="0"
             style="fill:#ffffff" />
        </g>
        <g
           id="Capa_1_25_"
           style="fill:#ffffff" />
      </g>
      <g
         id="g6940"
         style="fill:#ffffff" />
      <g
         id="g6942"
         style="fill:#ffffff" />
      <g
         id="g6944"
         style="fill:#ffffff" />
      <g
         id="g6946"
         style="fill:#ffffff" />
      <g
         id="g6948"
         style="fill:#ffffff" />
      <g
         id="g6950"
         style="fill:#ffffff" />
      <g
         id="g6952"
         style="fill:#ffffff" />
      <g
         id="g6954"
         style="fill:#ffffff" />
      <g
         id="g6956"
         style="fill:#ffffff" />
      <g
         id="g6958"
         style="fill:#ffffff" />
      <g
         id="g6960"
         style="fill:#ffffff" />
      <g
         id="g6962"
         style="fill:#ffffff" />
      <g
         id="g6964"
         style="fill:#ffffff" />
      <g
         id="g6966"
         style="fill:#ffffff" />
      <g
         id="g6968"
         style="fill:#ffffff" />
    </g>
    <g
       id="g7223"
       transform="matrix(0.0108377,0,0,0.0108377,81.692866,60.607508)"
       style="fill:#ffffff">
      <g
         id="g7165"
         style="fill:#ffffff">
        <path
           id="path7159"
           d="m 61.2,341.538 c 4.9,16.8 11.7,33 20.3,48.2 l -24.5,30.9 c -8,10.1 -7.1,24.5 1.9,33.6 l 42.2,42.2 c 9.1,9.1 23.5,9.899 33.6,1.899 l 30.7,-24.3 c 15.8,9.101 32.6,16.2 50.1,21.2 l 4.6,39.5 c 1.5,12.8 12.3,22.4 25.1,22.4 h 59.7 c 12.8,0 23.6,-9.601 25.1,-22.4 l 4.4,-38.1 c 18.8,-4.9 36.8,-12.2 53.7,-21.7 l 29.7,23.5 c 10.1,8 24.5,7.1 33.6,-1.9 l 42.2,-42.2 c 9.1,-9.1 9.9,-23.5 1.9,-33.6 l -23.1,-29.3 c 9.6,-16.601 17.1,-34.3 22.1,-52.8 l 35.6,-4.1 c 12.801,-1.5 22.4,-12.3 22.4,-25.1 v -59.7 c 0,-12.8 -9.6,-23.6 -22.4,-25.1 l -35.1,-4.1 c -4.801,-18.3 -12,-35.8 -21.199,-52.2 l 21.6,-27.3 c 8,-10.1 7.1,-24.5 -1.9,-33.6 l -42.1,-42.1 c -9.1,-9.1 -23.5,-9.9 -33.6,-1.9 l -26.5,21 c -17.2,-10.1 -35.601,-17.8 -54.9,-23 l -4,-34.3 c -1.5,-12.8 -12.3,-22.4 -25.1,-22.4 h -59.7 c -12.8,0 -23.6,9.6 -25.1,22.4 l -4,34.3 c -19.8,5.3 -38.7,13.3 -56.3,23.8 l -27.5,-21.8 c -10.1,-8 -24.5,-7.1 -33.6,1.9 l -42.2,42.2 c -9.1,9.1 -9.9,23.5 -1.9,33.6 l 23,29.1 c -9.2,16.6 -16.2,34.3 -20.8,52.7 l -36.8,4.2 c -12.8,1.5 -22.4,12.3 -22.4,25.1 v 59.7 c 0,12.8 9.6,23.6 22.4,25.1 z m 216.3,-161.5 c 54.4,0 98.7,44.3 98.7,98.7 0,54.4 -44.3,98.7 -98.7,98.7 -54.399,0 -98.7,-44.3 -98.7,-98.7 0,-54.4 44.3,-98.7 98.7,-98.7 z"
           inkscape:connector-curvature="0"
           style="fill:#ffffff" />
        <path
           id="path7161"
           d="m 867.699,356.238 -31.5,-26.6 c -9.699,-8.2 -24,-7.8 -33.199,0.9 l -17.4,16.3 c -14.699,-7.1 -30.299,-12.1 -46.4,-15 l -4.898,-24 c -2.5,-12.4 -14,-21 -26.602,-20 l -41.1,3.5 c -12.6,1.1 -22.5,11.4 -22.9,24.1 l -0.799,24.4 c -15.801,5.7 -30.701,13.5 -44.301,23.3 l -20.799,-13.8 c -10.602,-7 -24.701,-5 -32.9,4.7 l -26.6,31.7 c -8.201,9.7 -7.801,24 0.898,33.2 l 18.201,19.399 c -6.301,14.2 -10.801,29.101 -13.4,44.4 l -26,5.3 c -12.4,2.5 -21,14 -20,26.601 l 3.5,41.1 c 1.1,12.6 11.4,22.5 24.1,22.9 l 28.1,0.899 c 5.102,13.4 11.801,26.101 19.9,38 l -15.699,23.7 c -7,10.6 -5,24.7 4.699,32.9 l 31.5,26.6 c 9.701,8.2 24,7.8 33.201,-0.9 l 20.6,-19.3 c 13.5,6.3 27.699,11 42.299,13.8 l 5.701,28.2 c 2.5,12.4 14,21 26.6,20 l 41.1,-3.5 c 12.6,-1.1 22.5,-11.399 22.9,-24.1 l 0.9,-27.601 c 15,-5.3 29.199,-12.5 42.299,-21.399 l 22.701,15 c 10.6,7 24.699,5 32.9,-4.7 l 26.6,-31.5 c 8.199,-9.7 7.799,-24 -0.9,-33.2 L 872.7,592.138 c 6.701,-14.2 11.602,-29.2 14.4,-44.601 l 25,-5.1 c 12.4,-2.5 21,-14 20,-26.601 l -3.5,-41.1 c -1.1,-12.6 -11.4,-22.5 -24.1,-22.9 l -25.1,-0.8 c -5.201,-14.6 -12.201,-28.399 -20.9,-41.2 l 13.699,-20.6 c 7.201,-10.598 5.201,-24.798 -4.5,-32.998 z M 712.801,593.837 c -44.4,3.801 -83.602,-29.3 -87.301,-73.699 -3.801,-44.4 29.301,-83.601 73.699,-87.301 44.4,-3.8 83.602,29.301 87.301,73.7 3.801,44.401 -29.301,83.601 -73.699,87.3 z"
           inkscape:connector-curvature="0"
           style="fill:#ffffff" />
        <path
           id="path7163"
           d="m 205,704.438 c -12.6,1.3 -22.3,11.899 -22.4,24.6 l -0.3,25.3 c -0.2,12.7 9.2,23.5 21.8,25.101 l 18.6,2.399 c 3.1,11.301 7.5,22.101 13.2,32.301 l -12,14.8 c -8,9.899 -7.4,24.1 1.5,33.2 l 17.7,18.1 c 8.9,9.1 23.1,10.1 33.2,2.3 l 14.899,-11.5 c 10.5,6.2 21.601,11.101 33.2,14.5 l 2,19.2 c 1.3,12.6 11.9,22.3 24.6,22.4 l 25.301,0.3 c 12.699,0.2 23.5,-9.2 25.1,-21.8 l 2.3,-18.2 c 12.601,-3.101 24.601,-7.8 36,-14 l 14,11.3 c 9.9,8 24.101,7.4 33.201,-1.5 l 18.1,-17.7 c 9.1,-8.899 10.1,-23.1 2.301,-33.2 L 496.6,818.438 c 6.6,-11 11.701,-22.7 15.201,-35 l 16.6,-1.7 c 12.6,-1.3 22.299,-11.9 22.4,-24.6 l 0.299,-25.301 c 0.201,-12.699 -9.199,-23.5 -21.799,-25.1 l -16.201,-2.1 c -3.1,-12.2 -7.699,-24 -13.699,-35 l 10.1,-12.4 c 8,-9.9 7.4,-24.1 -1.5,-33.2 l -17.699,-18.1 c -8.9,-9.101 -23.102,-10.101 -33.201,-2.3 l -12.101,9.3 c -11.399,-6.9 -23.6,-12.2 -36.399,-15.8 L 407,581.437 c -1.3,-12.601 -11.899,-22.3 -24.6,-22.4 l -25.3,-0.3 c -12.7,-0.2 -23.5,9.2 -25.101,21.8 l -2,15.601 c -13.199,3.399 -25.899,8.6 -37.699,15.399 l -12.5,-10.2 c -9.9,-8 -24.101,-7.399 -33.201,1.5 l -18.2,17.801 c -9.1,8.899 -10.1,23.1 -2.3,33.199 l 10.7,13.801 c -6.2,11 -11.1,22.699 -14.3,35 z m 163.3,-28.601 c 36.3,0.4 65.399,30.301 65,66.601 -0.4,36.3 -30.301,65.399 -66.601,65 -36.3,-0.4 -65.399,-30.3 -65,-66.601 0.401,-36.299 30.301,-65.399 66.601,-65 z"
           inkscape:connector-curvature="0"
           style="fill:#ffffff" />
      </g>
      <g
         id="g7167"
         style="fill:#ffffff" />
      <g
         id="g7169"
         style="fill:#ffffff" />
      <g
         id="g7171"
         style="fill:#ffffff" />
      <g
         id="g7173"
         style="fill:#ffffff" />
      <g
         id="g7175"
         style="fill:#ffffff" />
      <g
         id="g7177"
         style="fill:#ffffff" />
      <g
         id="g7179"
         style="fill:#ffffff" />
      <g
         id="g7181"
         style="fill:#ffffff" />
      <g
         id="g7183"
         style="fill:#ffffff" />
      <g
         id="g7185"
         style="fill:#ffffff" />
      <g
         id="g7187"
         style="fill:#ffffff" />
      <g
         id="g7189"
         style="fill:#ffffff" />
      <g
         id="g7191"
         style="fill:#ffffff" />
      <g
         id="g7193"
         style="fill:#ffffff" />
      <g
         id="g7195"
         style="fill:#ffffff" />
    </g>
    <g
       id="g7460"
       transform="matrix(0.0204165,0,0,0.0204165,105.31407,47.523228)"
       style="fill:#ffffff">
      <g
         id="g7404"
         style="fill:#ffffff">
        <path
           id="path7402"
           d="m 441.7,196.601 c -20.9,0 -38.7,13.4 -45.4,32 h -70.1 c -2.1,-10.7 -6.4,-20.7 -12.2,-29.5 l 49.6,-49.6 c 17.9,8.4 39.9,5.3 54.7,-9.5 18.9,-18.9 18.9,-49.5 0,-68.3 -18.9,-18.9 -49.5,-18.9 -68.3,0 -14.8,14.8 -17.9,36.8 -9.5,54.7 l -49.6,49.6 c -8.8,-5.9 -18.8,-10.1 -29.5,-12.2 v -70.1 c 18.6,-6.7 32,-24.5 32,-45.4 0,-26.7 -21.6,-48.3 -48.3,-48.3 -26.7,0 -48.3,21.6 -48.3,48.3 0,20.9 13.4,38.7 32,45.4 v 70.1 c -10.7,2.1 -20.7,6.4 -29.5,12.2 l -49.6,-49.6 c 8.4,-17.9 5.3,-39.9 -9.5,-54.7 -18.9,-18.9 -49.5,-18.9 -68.3,0 -18.9,18.9 -18.9,49.5 0,68.3 14.8,14.8 36.8,17.9 54.7,9.5 l 49.6,49.6 c -5.9,8.8 -10.1,18.8 -12.2,29.5 H 93.9 c -6.7,-18.6 -24.5,-32 -45.4,-32 -26.9,0 -48.5,21.6 -48.5,48.3 0,26.7 21.6,48.3 48.3,48.3 20.9,0 38.7,-13.4 45.4,-32 h 70.1 c 2.1,10.7 6.4,20.7 12.2,29.5 l -49.6,49.6 c -17.9,-8.4 -39.9,-5.3 -54.7,9.5 -18.9,18.9 -18.9,49.5 0,68.3 18.9,18.9 49.5,18.9 68.3,0 14.8,-14.8 17.9,-36.8 9.5,-54.7 l 49.6,-49.6 c 8.8,5.9 18.8,10.1 29.5,12.2 v 70.1 c -18.6,6.7 -32,24.5 -32,45.4 0,26.7 21.6,48.3 48.3,48.3 26.7,0 48.3,-21.6 48.3,-48.3 0,-20.9 -13.4,-38.7 -32,-45.4 v -70.1 c 10.7,-2.1 20.7,-6.4 29.5,-12.2 l 49.6,49.6 c -8.4,17.9 -5.3,39.9 9.5,54.7 18.9,18.9 49.5,18.9 68.3,0 18.9,-18.9 18.9,-49.5 0,-68.3 -14.8,-14.8 -36.8,-17.9 -54.7,-9.5 l -49.6,-49.6 c 5.9,-8.8 10.1,-18.8 12.2,-29.5 h 70.1 c 6.7,18.6 24.5,32 45.4,32 26.7,0 48.3,-21.6 48.3,-48.3 0.2,-26.7 -21.4,-48.3 -48.1,-48.3 z m -196.7,95.4 c -26,0 -47.1,-21.1 -47.1,-47.1 0,-26 21.1,-47.1 47.1,-47.1 26,0 47.1,21.1 47.1,47.1 0,26 -21.1,47.1 -47.1,47.1 z"
           inkscape:connector-curvature="0"
           style="fill:#ffffff" />
      </g>
      <g
         id="g7406"
         style="fill:#ffffff" />
      <g
         id="g7408"
         style="fill:#ffffff" />
      <g
         id="g7410"
         style="fill:#ffffff" />
      <g
         id="g7412"
         style="fill:#ffffff" />
      <g
         id="g7414"
         style="fill:#ffffff" />
      <g
         id="g7416"
         style="fill:#ffffff" />
      <g
         id="g7418"
         style="fill:#ffffff" />
      <g
         id="g7420"
         style="fill:#ffffff" />
      <g
         id="g7422"
         style="fill:#ffffff" />
      <g
         id="g7424"
         style="fill:#ffffff" />
      <g
         id="g7426"
         style="fill:#ffffff" />
      <g
         id="g7428"
         style="fill:#ffffff" />
      <g
         id="g7430"
         style="fill:#ffffff" />
      <g
         id="g7432"
         style="fill:#ffffff" />
      <g
         id="g7434"
         style="fill:#ffffff" />
    </g>
    <text
       xml:space="preserve"
       style="font-style:normal;font-weight:normal;font-size:3.52777767px;line-height:52.91666412px;font-family:sans-serif;letter-spacing:0px;word-spacing:0px;fill:#ffffff;fill-opacity:1;stroke:none;stroke-width:0.26458332px;stroke-linecap:butt;stroke-linejoin:miter;stroke-opacity:1"
       x="107.68289"
       y="63.876606"
       id="text7464"><tspan
         sodipodi:role="line"
         id="tspan7462"
         x="107.68289"
         y="63.876606"
         style="font-size:3.52777767px;fill:#ffffff;stroke-width:0.26458332px">API</tspan></text>
    <text
       id="text7468"
       y="90.33493"
       x="105.18003"
       style="font-style:normal;font-weight:normal;font-size:3.52777767px;line-height:52.91666412px;font-family:sans-serif;letter-spacing:0px;word-spacing:0px;fill:#ffffff;fill-opacity:1;stroke:none;stroke-width:0.26458332px;stroke-linecap:butt;stroke-linejoin:miter;stroke-opacity:1"
       xml:space="preserve"><tspan
         style="font-size:3.52777767px;fill:#ffffff;stroke-width:0.26458332px"
         y="90.33493"
         x="105.18003"
         id="tspan7466"
         sodipodi:role="line">AMQP</tspan></text>
    <text
       xml:space="preserve"
       style="font-style:normal;font-weight:normal;font-size:3.52777767px;line-height:52.91666412px;font-family:sans-serif;letter-spacing:0px;word-spacing:0px;fill:#ffffff;fill-opacity:1;stroke:none;stroke-width:0.26458332px;stroke-linecap:butt;stroke-linejoin:miter;stroke-opacity:1"
       x="101.36287"
       y="116.79325"
       id="text7487"><tspan
         sodipodi:role="line"
         id="tspan7485"
         x="101.36287"
         y="116.79325"
         style="font-size:3.52777767px;fill:#ffffff;stroke-width:0.26458332px">Scheduler</tspan></text>
    <text
       xml:space="preserve"
       style="font-style:normal;font-weight:normal;font-size:3.52777767px;line-height:52.91666412px;font-family:sans-serif;letter-spacing:0px;word-spacing:0px;fill:#ffffff;fill-opacity:1;stroke:none;stroke-width:0.26458332px;stroke-linecap:butt;stroke-linejoin:miter;stroke-opacity:1"
       x="77.50705"
       y="76.047432"
       id="text7491"><tspan
         sodipodi:role="line"
         id="tspan7489"
         x="77.50705"
         y="76.047432"
         style="font-size:3.52777767px;fill:#ffffff;stroke-width:0.26458332px">Conductor</tspan></text>
    <text
       id="text7495"
       y="103.56408"
       x="78.245155"
       style="font-style:normal;font-weight:normal;font-size:3.52777767px;line-height:52.91666412px;font-family:sans-serif;letter-spacing:0px;word-spacing:0px;fill:#ffffff;fill-opacity:1;stroke:none;stroke-width:0.26458332px;stroke-linecap:butt;stroke-linejoin:miter;stroke-opacity:1"
       xml:space="preserve"><tspan
         style="font-size:3.52777767px;fill:#ffffff;stroke-width:0.26458332px"
         y="103.56408"
         x="78.245155"
         id="tspan7493"
         sodipodi:role="line">Database</tspan></text>
    <text
       id="text7499"
       y="102.50576"
       x="133.71259"
       style="font-style:normal;font-weight:normal;font-size:3.52777767px;line-height:4px;font-family:sans-serif;text-align:center;letter-spacing:0px;word-spacing:0px;text-anchor:middle;fill:#ffffff;fill-opacity:1;stroke:none;stroke-width:0.26458332px;stroke-linecap:butt;stroke-linejoin:miter;stroke-opacity:1"
       xml:space="preserve"><tspan
         style="font-size:3.52777767px;line-height:4px;text-align:center;text-anchor:middle;fill:#ffffff;stroke-width:0.26458332px"
         y="102.50576"
         x="133.71259"
         sodipodi:role="line"
         id="tspan8212">Glance &amp;</tspan><tspan
         style="font-size:3.52777767px;line-height:4px;text-align:center;text-anchor:middle;fill:#ffffff;stroke-width:0.26458332px"
         y="106.50576"
         x="133.71259"
         sodipodi:role="line"
         id="tspan8216">Cinder</tspan></text>
    <rect
       style="fill:#ffffff;fill-opacity:1;stroke-width:0.26458332;stroke:#000000;stroke-opacity:1"
       id="rect7688"
       width="2.4722431"
       height="6.2140164"
       x="109.20607"
       y="66.76619"
       ry="1.2361215" />
    <rect
       ry="1.2361215"
       y="93.753677"
       x="109.20607"
       height="6.2140164"
       width="2.4722431"
       id="rect7690"
       style="fill:#ffffff;fill-opacity:1;stroke:#000000;stroke-width:0.26458332;stroke-opacity:1" />
    <rect
       transform="rotate(125.71197)"
       style="fill:#ffffff;fill-opacity:1;stroke:#000000;stroke-width:0.26458332;stroke-opacity:1"
       id="rect7694"
       width="2.4722431"
       height="6.2140164"
       x="25.634607"
       y="-143.4537"
       ry="1.2361215" />
    <rect
       style="fill:#ffffff;fill-opacity:1;stroke:#000000;stroke-width:0.26458332;stroke-opacity:1"
       id="rect7696"
       width="2.4722431"
       height="6.2140164"
       x="85.393585"
       y="79.995354"
       ry="1.2361215" />
    <rect
       transform="rotate(-55.982255)"
       style="fill:#ffffff;fill-opacity:1;stroke:#000000;stroke-width:0.26458332;stroke-opacity:1"
       id="rect7698"
       width="2.4722431"
       height="6.2140164"
       x="-9.5795183"
       y="121.7243"
       ry="1.2361215" />
    <path
       transform="rotate(-1.1339144,-1202.9906,85.911473)"
       sodipodi:type="star"
       style="fill:#000000;fill-opacity:1;stroke-width:0.09630936"
       id="path7929"
       sodipodi:sides="6"
       sodipodi:cx="133.88397"
       sodipodi:cy="96.966911"
       sodipodi:r1="12.220682"
       sodipodi:r2="14.14881"
       sodipodi:arg1="-1.6095999"
       sodipodi:arg2="-1.0276701"
       inkscape:flatsided="false"
       inkscape:rounded="0.0094664047"
       inkscape:randomized="0"
       d="m 133.40989,84.755428 c 0.0737,0.0014 7.72118,0.06437 7.7864,0.09873 0.0533,0.02807 2.997,5.543707 3.02609,5.596443 0.0356,0.06455 3.80484,6.718926 3.80771,6.792586 0.002,0.06018 -3.30249,5.367336 -3.33362,5.418896 -0.0381,0.0631 -3.91634,6.65455 -3.9787,6.69386 -0.051,0.0321 -6.2995,-0.17637 -6.35971,-0.17755 -0.0737,-0.001 -7.72118,-0.0644 -7.7864,-0.0987 -0.0533,-0.0281 -2.99701,-5.54371 -3.0261,-5.59645 -0.0356,-0.0645 -3.80484,-6.718922 -3.8077,-6.792581 -0.002,-0.06018 3.30249,-5.367338 3.33361,-5.418898 0.0381,-0.06311 3.91634,-6.654552 3.9787,-6.693859 0.051,-0.03212 6.2995,0.17637 6.35972,0.177546 z"
       inkscape:transform-center-x="0.043014202"
       inkscape:transform-center-y="-2.1733012" />
    <g
       style="fill:#ffffff"
       transform="matrix(0.62992126,0,0,0.62992126,108.96864,24.160855)"
       id="g7955">
      <path
         id="path7931"
         d="m 34.393714,59.728469 c -0.656431,0 -1.190625,0.534193 -1.190625,1.190625 0,0.656431 0.534194,1.190625 1.190625,1.190625 0.656431,0 1.190625,-0.534194 1.190625,-1.190625 0,-0.656432 -0.534194,-1.190625 -1.190625,-1.190625 z m 0,1.852083 c -0.364596,0 -0.661458,-0.296598 -0.661458,-0.661458 0,-0.364861 0.296862,-0.661459 0.661458,-0.661459 0.364596,0 0.661458,0.296598 0.661458,0.661459 0,0.36486 -0.296862,0.661458 -0.661458,0.661458 z"
         inkscape:connector-curvature="0"
         style="fill:#ffffff;stroke-width:0.26458332" />
      <circle
         id="circle7933"
         r="0.26458332"
         cy="60.522217"
         cx="44.844757"
         style="fill:#ffffff;stroke-width:0.26458332" />
      <circle
         id="circle7935"
         r="0.26458332"
         cy="60.522217"
         cx="43.786423"
         style="fill:#ffffff;stroke-width:0.26458332" />
      <circle
         id="circle7937"
         r="0.26458332"
         cy="61.315968"
         cx="45.37392"
         style="fill:#ffffff;stroke-width:0.26458332" />
      <circle
         id="circle7939"
         r="0.26458332"
         cy="61.315968"
         cx="44.31559"
         style="fill:#ffffff;stroke-width:0.26458332" />
      <circle
         id="circle7941"
         r="0.26458332"
         cy="60.522217"
         cx="42.728088"
         style="fill:#ffffff;stroke-width:0.26458332" />
      <circle
         id="circle7943"
         r="0.26458332"
         cy="61.315968"
         cx="43.257256"
         style="fill:#ffffff;stroke-width:0.26458332" />
      <circle
         id="circle7945"
         r="0.26458332"
         cy="60.522217"
         cx="41.669754"
         style="fill:#ffffff;stroke-width:0.26458332" />
      <circle
         id="circle7947"
         r="0.26458332"
         cy="61.315968"
         cx="42.198921"
         style="fill:#ffffff;stroke-width:0.26458332" />
      <circle
         id="circle7949"
         r="0.26458332"
         cy="60.522217"
         cx="40.611423"
         style="fill:#ffffff;stroke-width:0.26458332" />
      <circle
         id="circle7951"
         r="0.26458332"
         cy="61.315968"
         cx="41.140591"
         style="fill:#ffffff;stroke-width:0.26458332" />
      <path
         id="path7953"
         d="m 47.490589,62.478019 v -3.11785 c 0,-0.672307 -0.546894,-1.2192 -1.2192,-1.2192 h -13.4366 c -0.672306,0 -1.2192,0.546893 -1.2192,1.2192 v 3.117585 c 0,0.388673 0.153781,0.857778 0.588283,1.072735 1.245128,0.02861 14.722058,0.01208 14.722058,0.01208 0.555833,-0.217402 0.564659,-0.696137 0.564659,-1.084545 z m -14.6558,0.690033 c -0.380471,0 -0.690033,-0.309563 -0.690033,-0.690033 v -3.11785 c 0,-0.380471 0.309562,-0.690034 0.690033,-0.690034 h 13.436335 c 0.380736,0 0.690298,0.309563 0.690298,0.690034 v 3.117585 c 0,0.380471 -0.309562,0.690033 -0.690033,0.690033 h -13.4366 z"
         inkscape:connector-curvature="0"
         style="fill:#ffffff;stroke-width:0.26458332"
         sodipodi:nodetypes="csssssccsccssssssccc" />
    </g>
    <text
       xml:space="preserve"
       style="font-style:normal;font-weight:normal;font-size:3.52777767px;line-height:52.91666412px;font-family:sans-serif;text-align:center;letter-spacing:0px;word-spacing:0px;text-anchor:middle;fill:#ffffff;fill-opacity:1;stroke:none;stroke-width:0.26458332px;stroke-linecap:butt;stroke-linejoin:miter;stroke-opacity:1"
       x="133.71259"
       y="75.518265"
       id="text7959"><tspan
         sodipodi:role="line"
         id="tspan7957"
         x="133.71259"
         y="75.518265"
         style="font-size:3.52777767px;text-align:center;text-anchor:middle;fill:#ffffff;stroke-width:0.26458332px">Hypervisor</tspan></text>
    <text
       id="text7963"
       y="68.639107"
       x="133.8788"
       style="font-style:normal;font-weight:normal;font-size:3.52777767px;line-height:52.91666412px;font-family:sans-serif;text-align:center;letter-spacing:0px;word-spacing:0px;text-anchor:middle;fill:#ffffff;fill-opacity:1;stroke:none;stroke-width:0.26458332px;stroke-linecap:butt;stroke-linejoin:miter;stroke-opacity:1"
       xml:space="preserve"><tspan
         style="font-size:3.52777767px;text-align:center;text-anchor:middle;fill:#ffffff;stroke-width:0.26458332px"
         y="68.639107"
         x="133.8788"
         id="tspan7961"
         sodipodi:role="line">Compute</tspan></text>
    <path
       inkscape:connector-curvature="0"
       id="path7965"
       d="m 119.72981,70.509311 h 28.19693"
       style="fill:#ffffff;fill-opacity:1;fill-rule:evenodd;stroke:#ffffff;stroke-width:0.26458332px;stroke-linecap:butt;stroke-linejoin:miter;stroke-opacity:1" />
    <rect
       ry="1.2361215"
       y="68.003159"
       x="-127.3405"
       height="6.2140164"
       width="2.4722431"
       id="rect7692"
       style="fill:#ffffff;fill-opacity:1;stroke:#000000;stroke-width:0.26458332;stroke-opacity:1"
       transform="rotate(-118.0698)" />
    <g
       id="g8210"
       transform="matrix(0.16736682,0,0,0.16736682,128.82101,87.449084)"
       style="fill:#ffffff">
      <g
         id="g8141"
         style="fill:#ffffff">
        <path
           id="path8113"
           d="m 10.5,6.125 c -2.481,0 -4.5,2.019 -4.5,4.5 0,2.481 2.019,4.5 4.5,4.5 2.481,0 4.5,-2.019 4.5,-4.5 0,-2.481 -2.019,-4.5 -4.5,-4.5 z m 0,7 c -1.378,0 -2.5,-1.121 -2.5,-2.5 0,-1.379 1.122,-2.5 2.5,-2.5 1.378,0 2.5,1.121 2.5,2.5 0,1.379 -1.122,2.5 -2.5,2.5 z"
           inkscape:connector-curvature="0"
           style="fill:#ffffff" />
        <circle
           id="circle8115"
           r="1"
           cy="9.125"
           cx="50"
           style="fill:#ffffff" />
        <circle
           id="circle8117"
           r="1"
           cy="9.125"
           cx="46"
           style="fill:#ffffff" />
        <circle
           id="circle8119"
           r="1"
           cy="12.125"
           cx="52"
           style="fill:#ffffff" />
        <circle
           id="circle8121"
           r="1"
           cy="12.125"
           cx="48"
           style="fill:#ffffff" />
        <circle
           id="circle8123"
           r="1"
           cy="9.125"
           cx="42"
           style="fill:#ffffff" />
        <circle
           id="circle8125"
           r="1"
           cy="12.125"
           cx="44"
           style="fill:#ffffff" />
        <circle
           id="circle8127"
           r="1"
           cy="9.125"
           cx="38"
           style="fill:#ffffff" />
        <circle
           id="circle8129"
           r="1"
           cy="12.125"
           cx="40"
           style="fill:#ffffff" />
        <circle
           id="circle8131"
           r="1"
           cy="9.125"
           cx="34"
           style="fill:#ffffff" />
        <circle
           id="circle8133"
           r="1"
           cy="12.125"
           cx="36"
           style="fill:#ffffff" />
        <path
           id="path8135"
           d="m 10.5,25.125 c -2.481,0 -4.5,2.019 -4.5,4.5 0,2.481 2.019,4.5 4.5,4.5 2.481,0 4.5,-2.019 4.5,-4.5 0,-2.481 -2.019,-4.5 -4.5,-4.5 z m 0,7 c -1.378,0 -2.5,-1.121 -2.5,-2.5 0,-1.379 1.122,-2.5 2.5,-2.5 1.378,0 2.5,1.121 2.5,2.5 0,1.379 -1.122,2.5 -2.5,2.5 z"
           inkscape:connector-curvature="0"
           style="fill:#ffffff" />
        <path
           id="path8137"
           d="m 10.5,44.125 c -2.481,0 -4.5,2.019 -4.5,4.5 0,2.481 2.019,4.5 4.5,4.5 2.481,0 4.5,-2.019 4.5,-4.5 0,-2.481 -2.019,-4.5 -4.5,-4.5 z m 0,7 c -1.378,0 -2.5,-1.121 -2.5,-2.5 0,-1.379 1.122,-2.5 2.5,-2.5 1.378,0 2.5,1.121 2.5,2.5 0,1.379 -1.122,2.5 -2.5,2.5 z"
           inkscape:connector-curvature="0"
           style="fill:#ffffff" />
        <path
           id="path8139"
           d="M 60,16.517 V 4.733 C 60,2.192 57.933,0.125 55.392,0.125 H 4.608 C 2.067,0.125 0,2.192 0,4.733 V 16.516 C 0,17.985 0.703,19.28 1.777,20.124 0.703,20.969 0,22.265 0,23.733 V 35.516 C 0,36.985 0.703,38.28 1.777,39.124 0.703,39.969 0,41.265 0,42.733 v 11.783 c 0,2.541 2.067,4.608 4.608,4.608 h 27.875 c 2.682,0.494 5.622,0.75 8.517,0.75 8.672,0 17.816,-2.249 18.895,-6.553 C 59.962,53.188 60,53.036 60,52.875 v -9 V 43.5 43.125 34.875 34.5 34.125 25.5 25.125 C 60,24.975 59.963,24.836 59.904,24.709 59.557,23.245 58.256,22.012 56.342,21.024 58.428,20.585 60,18.732 60,16.517 Z m -58,19 V 23.733 c 0,-1.438 1.17,-2.608 2.608,-2.608 h 20.86 c -1.809,0.971 -3.037,2.169 -3.372,3.584 C 22.037,24.837 22,24.975 22,25.125 v 0.375 8.625 0.375 0.375 3.25 H 4.608 C 3.17,38.125 2,36.955 2,35.517 Z M 24.626,29.38 c 0.045,0.029 0.093,0.058 0.139,0.087 0.176,0.11 0.359,0.218 0.55,0.324 0.055,0.03 0.108,0.061 0.163,0.09 0.233,0.125 0.475,0.247 0.727,0.364 0.04,0.019 0.083,0.037 0.123,0.055 0.221,0.101 0.448,0.198 0.682,0.293 0.069,0.028 0.137,0.056 0.206,0.083 0.276,0.108 0.557,0.214 0.848,0.314 0.016,0.005 0.032,0.01 0.048,0.016 0.278,0.095 0.564,0.186 0.855,0.274 0.078,0.024 0.157,0.047 0.236,0.07 0.288,0.084 0.58,0.166 0.879,0.244 0.024,0.006 0.047,0.013 0.071,0.019 0.322,0.083 0.651,0.16 0.985,0.235 0.084,0.019 0.169,0.037 0.253,0.055 0.286,0.062 0.575,0.121 0.867,0.177 0.058,0.011 0.116,0.023 0.174,0.034 0.343,0.064 0.69,0.123 1.041,0.179 0.083,0.013 0.168,0.026 0.251,0.039 0.291,0.045 0.584,0.087 0.88,0.126 0.081,0.011 0.161,0.022 0.243,0.032 0.358,0.045 0.718,0.087 1.081,0.125 0.073,0.008 0.147,0.014 0.22,0.021 0.305,0.03 0.612,0.057 0.919,0.082 0.093,0.007 0.185,0.015 0.278,0.022 0.367,0.027 0.736,0.051 1.105,0.07 0.052,0.003 0.105,0.004 0.158,0.007 0.325,0.016 0.651,0.028 0.977,0.037 0.098,0.003 0.196,0.006 0.295,0.008 0.373,0.008 0.746,0.014 1.118,0.014 0.372,0 0.745,-0.006 1.118,-0.014 0.098,-0.002 0.196,-0.005 0.295,-0.008 0.326,-0.009 0.651,-0.021 0.977,-0.037 0.053,-0.003 0.105,-0.004 0.158,-0.007 0.369,-0.019 0.738,-0.043 1.105,-0.07 0.093,-0.007 0.185,-0.014 0.278,-0.022 0.308,-0.024 0.614,-0.052 0.919,-0.082 0.073,-0.007 0.147,-0.014 0.22,-0.021 0.363,-0.038 0.723,-0.079 1.081,-0.125 0.081,-0.01 0.162,-0.021 0.243,-0.032 0.295,-0.039 0.589,-0.081 0.88,-0.126 0.084,-0.013 0.168,-0.025 0.251,-0.039 0.351,-0.056 0.698,-0.115 1.041,-0.179 0.059,-0.011 0.116,-0.023 0.174,-0.034 0.293,-0.056 0.582,-0.115 0.867,-0.177 0.085,-0.019 0.169,-0.037 0.253,-0.055 0.333,-0.075 0.663,-0.152 0.985,-0.235 0.024,-0.006 0.047,-0.013 0.071,-0.019 0.299,-0.077 0.591,-0.159 0.879,-0.244 0.079,-0.023 0.158,-0.046 0.236,-0.07 0.291,-0.088 0.577,-0.179 0.855,-0.274 0.016,-0.005 0.032,-0.01 0.048,-0.016 0.291,-0.101 0.573,-0.206 0.848,-0.314 0.07,-0.027 0.138,-0.055 0.206,-0.083 0.234,-0.095 0.461,-0.192 0.682,-0.293 0.041,-0.019 0.083,-0.036 0.123,-0.055 0.252,-0.117 0.493,-0.239 0.727,-0.364 0.056,-0.03 0.109,-0.06 0.163,-0.09 0.19,-0.105 0.373,-0.213 0.55,-0.324 0.046,-0.029 0.094,-0.057 0.139,-0.087 0.207,-0.134 0.403,-0.272 0.589,-0.414 0.012,-0.009 0.026,-0.017 0.038,-0.026 v 4.988 c -0.024,0.116 -0.04,0.234 -0.021,0.353 C 57.99,34.354 58,34.426 58,34.5 c 0,0.11 -0.031,0.222 -0.058,0.333 -0.021,0.086 -0.048,0.173 -0.084,0.259 -0.032,0.075 -0.072,0.151 -0.116,0.226 -0.043,0.075 -0.09,0.151 -0.144,0.226 -0.077,0.104 -0.164,0.208 -0.263,0.312 -0.037,0.04 -0.074,0.08 -0.114,0.12 -2.117,2.048 -8.364,3.898 -16.22,3.898 -7.851,0 -14.095,-1.848 -16.216,-3.895 -0.044,-0.044 -0.084,-0.087 -0.124,-0.131 -0.094,-0.1 -0.179,-0.2 -0.253,-0.3 C 24.351,35.469 24.301,35.39 24.256,35.31 24.215,35.239 24.177,35.168 24.146,35.096 24.107,35.005 24.08,34.915 24.058,34.825 24.031,34.717 24,34.608 24,34.5 c 0,-0.071 0.009,-0.142 0.021,-0.212 0.021,-0.13 0.008,-0.26 -0.021,-0.385 v -4.964 c 0.012,0.009 0.026,0.017 0.038,0.026 0.185,0.142 0.381,0.28 0.588,0.415 z m 33.231,14.712 c -0.032,0.075 -0.072,0.151 -0.116,0.226 -0.043,0.075 -0.09,0.151 -0.144,0.226 -0.077,0.104 -0.164,0.208 -0.263,0.312 -0.037,0.04 -0.074,0.08 -0.114,0.12 -2.117,2.048 -8.364,3.898 -16.22,3.898 -7.851,0 -14.095,-1.848 -16.216,-3.895 -0.044,-0.044 -0.084,-0.087 -0.124,-0.131 -0.094,-0.1 -0.179,-0.2 -0.253,-0.3 C 24.35,44.469 24.3,44.39 24.255,44.31 24.214,44.239 24.176,44.168 24.145,44.096 24.106,44.005 24.079,43.915 24.057,43.825 24.034,43.731 24.01,43.636 24.007,43.542 v -0.12 c 0.004,-0.045 0.006,-0.09 0.013,-0.135 0.014,-0.086 -0.005,-0.17 -0.014,-0.255 L 24,38.125 v -0.186 c 0.04,0.031 0.087,0.06 0.129,0.09 0.126,0.094 0.258,0.186 0.393,0.277 0.11,0.073 0.224,0.145 0.34,0.217 0.179,0.11 0.359,0.219 0.551,0.324 0.002,10e-4 0.004,0.002 0.005,0.003 2.086,1.137 4.954,1.958 8.125,2.455 0.024,0.004 0.048,0.007 0.072,0.011 1.023,0.159 2.073,0.283 3.141,0.374 0.227,0.019 0.453,0.039 0.682,0.055 0.223,0.016 0.446,0.03 0.67,0.042 0.302,0.017 0.604,0.032 0.906,0.044 0.176,0.007 0.352,0.015 0.529,0.02 0.487,0.014 0.973,0.024 1.458,0.024 0.484,0 0.97,-0.009 1.455,-0.023 0.178,-0.005 0.355,-0.013 0.533,-0.02 0.3,-0.012 0.599,-0.026 0.898,-0.043 0.226,-0.013 0.451,-0.027 0.676,-0.043 0.225,-0.016 0.447,-0.035 0.671,-0.054 1.078,-0.091 2.138,-0.217 3.17,-0.377 0.015,-0.002 0.031,-0.005 0.046,-0.007 3.465,-0.542 6.564,-1.473 8.681,-2.779 0.115,-0.071 0.229,-0.142 0.338,-0.215 0.135,-0.09 0.267,-0.182 0.392,-0.276 0.045,-0.033 0.096,-0.064 0.14,-0.098 v 4.988 c -0.024,0.116 -0.04,0.234 -0.021,0.353 0.01,0.073 0.02,0.145 0.02,0.219 0,0.11 -0.031,0.222 -0.058,0.333 -0.022,0.086 -0.048,0.173 -0.085,0.259 z M 4.608,57.125 C 3.17,57.125 2,55.955 2,54.517 V 42.733 C 2,41.295 3.17,40.125 4.608,40.125 H 22 v 3 0.375 0.375 9 1 h 0.296 c 0.016,0.037 0.039,0.073 0.057,0.11 0.035,0.075 0.074,0.148 0.114,0.222 0.082,0.148 0.175,0.294 0.278,0.438 0.102,0.145 0.217,0.285 0.339,0.424 0.062,0.07 0.124,0.139 0.191,0.208 0.383,0.395 0.843,0.765 1.374,1.111 0.018,0.012 0.037,0.024 0.056,0.036 0.384,0.247 0.799,0.481 1.248,0.702 H 4.608 Z M 58,52.619 c -0.008,0.031 -0.015,0.063 -0.02,0.094 -0.409,2.493 -7.33,5.162 -16.98,5.162 -3.079,0 -5.875,-0.273 -8.276,-0.724 l 0.001,-0.008 C 27.752,56.202 25,54.613 24.23,53.273 24.229,53.272 24.228,53.271 24.228,53.269 24.193,53.207 24.168,53.146 24.141,53.086 24.089,52.961 24.04,52.837 24.02,52.713 l -0.008,-5.765 c 0.036,0.028 0.079,0.054 0.116,0.082 0.126,0.094 0.258,0.186 0.393,0.277 0.11,0.073 0.224,0.145 0.34,0.217 0.179,0.11 0.359,0.219 0.551,0.324 0.002,10e-4 0.004,0.002 0.005,0.003 2.086,1.137 4.954,1.958 8.125,2.455 0.024,0.004 0.048,0.007 0.072,0.011 1.023,0.159 2.073,0.283 3.141,0.374 0.227,0.019 0.453,0.039 0.682,0.055 0.223,0.016 0.446,0.03 0.67,0.042 0.302,0.017 0.604,0.032 0.906,0.044 0.176,0.007 0.352,0.015 0.529,0.02 0.487,0.014 0.973,0.024 1.458,0.024 0.484,0 0.97,-0.009 1.455,-0.023 0.178,-0.005 0.355,-0.013 0.533,-0.02 0.3,-0.012 0.599,-0.026 0.898,-0.043 0.226,-0.013 0.451,-0.027 0.676,-0.043 0.225,-0.016 0.447,-0.035 0.671,-0.054 1.078,-0.091 2.138,-0.217 3.17,-0.377 0.015,-0.002 0.031,-0.005 0.046,-0.007 3.465,-0.542 6.564,-1.473 8.681,-2.779 0.115,-0.071 0.229,-0.142 0.338,-0.215 0.135,-0.09 0.267,-0.182 0.392,-0.276 0.045,-0.033 0.096,-0.064 0.14,-0.098 z M 58,25.5 c 0,2.537 -7.271,5.375 -17,5.375 -9.73,0 -17,-2.838 -17,-5.375 0,-0.128 0.031,-0.258 0.068,-0.388 0.04,-0.129 0.094,-0.261 0.174,-0.397 0.003,-0.006 0.006,-0.012 0.009,-0.018 0.333,-0.556 1.004,-1.154 2.037,-1.731 0.044,-0.024 0.089,-0.048 0.134,-0.072 0.177,-0.096 0.364,-0.191 0.561,-0.285 0.229,-0.107 0.464,-0.214 0.716,-0.317 0.049,-0.021 0.1,-0.041 0.151,-0.061 1.162,-0.463 2.562,-0.874 4.138,-1.21 0.493,-0.104 0.995,-0.202 1.511,-0.288 0.137,-0.023 0.271,-0.047 0.41,-0.069 4.477,-0.69 9.7,-0.69 14.177,0 0.141,0.022 0.277,0.047 0.416,0.07 0.513,0.085 1.012,0.182 1.501,0.286 C 54.878,22.058 58,23.841 58,25.5 Z m 0,-8.983 c 0,1.438 -1.17,2.608 -2.608,2.608 h -4.63 C 50.704,19.112 50.64,19.104 50.582,19.091 49.926,18.949 49.251,18.822 48.561,18.712 48.494,18.702 48.427,18.691 48.36,18.681 45.999,18.314 43.479,18.125 41,18.125 c -2.479,0 -4.997,0.189 -7.358,0.556 -0.069,0.01 -0.137,0.021 -0.206,0.031 -0.688,0.11 -1.361,0.237 -2.015,0.378 -0.059,0.013 -0.125,0.021 -0.184,0.034 H 4.608 C 3.17,19.125 2,17.955 2,16.517 V 4.733 C 2,3.295 3.17,2.125 4.608,2.125 H 55.391 C 56.83,2.125 58,3.295 58,4.733 Z"
           inkscape:connector-curvature="0"
           style="fill:#ffffff" />
      </g>
      <g
         id="g8143"
         style="fill:#ffffff" />
      <g
         id="g8145"
         style="fill:#ffffff" />
      <g
         id="g8147"
         style="fill:#ffffff" />
      <g
         id="g8149"
         style="fill:#ffffff" />
      <g
         id="g8151"
         style="fill:#ffffff" />
      <g
         id="g8153"
         style="fill:#ffffff" />
      <g
         id="g8155"
         style="fill:#ffffff" />
      <g
         id="g8157"
         style="fill:#ffffff" />
      <g
         id="g8159"
         style="fill:#ffffff" />
      <g
         id="g8161"
         style="fill:#ffffff" />
      <g
         id="g8163"
         style="fill:#ffffff" />
      <g
         id="g8165"
         style="fill:#ffffff" />
      <g
         id="g8167"
         style="fill:#ffffff" />
      <g
         id="g8169"
         style="fill:#ffffff" />
      <g
         id="g8171"
         style="fill:#ffffff" />
    </g>
    <rect
       style="fill:#ffffff;fill-opacity:1;stroke:#000000;stroke-width:0.26458332;stroke-opacity:1"
       id="rect8218"
       width="2.4722431"
       height="6.2140164"
       x="132.48935"
       y="80.524521"
       ry="1.2361215" />
    <path
       inkscape:transform-center-y="-2.1733012"
       inkscape:transform-center-x="0.043014202"
       d="m 133.40989,84.755428 c 0.0737,0.0014 7.72118,0.06437 7.7864,0.09873 0.0533,0.02807 2.997,5.543707 3.02609,5.596443 0.0356,0.06455 3.80484,6.718926 3.80771,6.792586 0.002,0.06018 -3.30249,5.367336 -3.33362,5.418896 -0.0381,0.0631 -3.91634,6.65455 -3.9787,6.69386 -0.051,0.0321 -6.2995,-0.17637 -6.35971,-0.17755 -0.0737,-0.001 -7.72118,-0.0644 -7.7864,-0.0987 -0.0533,-0.0281 -2.99701,-5.54371 -3.0261,-5.59645 -0.0356,-0.0645 -3.80484,-6.718922 -3.8077,-6.792581 -0.002,-0.06018 3.30249,-5.367338 3.33361,-5.418898 0.0381,-0.06311 3.91634,-6.654552 3.9787,-6.693859 0.051,-0.03212 6.2995,0.17637 6.35972,0.177546 z"
       inkscape:randomized="0"
       inkscape:rounded="0.0094664047"
       inkscape:flatsided="false"
       sodipodi:arg2="-1.0276701"
       sodipodi:arg1="-1.6095999"
       sodipodi:r2="14.14881"
       sodipodi:r1="12.220682"
       sodipodi:cy="96.966911"
       sodipodi:cx="133.88397"
       sodipodi:sides="6"
       id="path8220"
       style="fill:#000000;fill-opacity:1;stroke-width:0.09630936"
       sodipodi:type="star"
       transform="rotate(-1.1339144,-1871.493,-1138.4422)" />
    <rect
       transform="rotate(-118.0698)"
       style="fill:#ffffff;fill-opacity:1;stroke:#000000;stroke-width:0.26458332;stroke-opacity:1"
       id="rect8222"
       width="2.4722431"
       height="6.2140164"
       x="-126.40537"
       y="95.488625"
       ry="1.2361215" />
    <g
       id="g8386"
       transform="matrix(0.60313631,0,0,0.60313631,153.1614,47.523249)"
       style="fill:#ffffff">
      <g
         id="g8325"
         style="fill:#ffffff">
        <g
           id="g8323"
           style="fill:#ffffff">
          <path
             id="path8313"
             d="M 8.29,0 C 3.719,0 0,3.718 0,8.29 c 0,4.572 3.718,8.29 8.29,8.29 4.572,0 8.29,-3.719 8.29,-8.29 C 16.58,3.719 12.861,0 8.29,0 Z m 0,15.808 c -4.146,0 -7.519,-3.373 -7.519,-7.519 0,-4.146 3.373,-7.519 7.519,-7.519 4.146,0 7.519,3.373 7.519,7.519 0,4.146 -3.373,7.519 -7.519,7.519 z"
             style="fill:#ffffff"
             inkscape:connector-curvature="0" />
          <path
             id="path8315"
             d="m 15.145,7.258 c -0.546,0 -1.971,0 -2.703,0 -0.238,0 -0.393,0 -0.393,0 0,0 0,-0.569 0,-0.927 0,-0.357 -0.268,-0.088 -0.268,-0.088 0,0 -2.012,1.516 -2.223,1.727 -0.154,0.153 0.017,0.3 0.017,0.3 l 2.153,1.781 c 0,0 0.257,0.271 0.257,-0.022 0,-0.294 0,-1.004 0,-1.004 0,0 0.173,0 0.438,0 0.757,0 2.135,0 2.696,0 0,0 0.152,0.039 0.152,-0.191 0,-0.232 0,-1.248 0,-1.413 10e-4,-0.167 -0.126,-0.163 -0.126,-0.163 z"
             style="fill:#ffffff"
             inkscape:connector-curvature="0" />
          <path
             id="path8317"
             d="M 7.066,7.97 C 6.855,7.759 4.842,6.243 4.842,6.243 c 0,0 -0.267,-0.269 -0.267,0.088 0,0.357 0,0.927 0,0.927 0,0 -0.155,0 -0.393,0 -0.732,0 -2.158,0 -2.703,0 0,0 -0.127,-0.004 -0.127,0.162 0,0.165 0,1.181 0,1.413 0,0.23 0.152,0.191 0.152,0.191 0.561,0 1.939,0 2.696,0 0.265,0 0.438,0 0.438,0 0,0 0,0.71 0,1.004 0,0.293 0.256,0.022 0.256,0.022 L 7.047,8.269 C 7.049,8.27 7.221,8.123 7.066,7.97 Z"
             style="fill:#ffffff"
             inkscape:connector-curvature="0" />
          <path
             id="path8319"
             d="M 8.5,9.505 C 8.348,9.352 8.201,9.523 8.201,9.523 L 6.42,11.676 c 0,0 -0.271,0.256 0.022,0.256 0.294,0 1.004,0 1.004,0 0,0 0,0.173 0,0.438 0,0.757 0,2.136 0,2.696 0,0 -0.04,0.152 0.191,0.152 0.232,0 1.248,0 1.413,0 0.166,0 0.162,-0.127 0.162,-0.127 0,-0.545 0,-1.971 0,-2.702 0,-0.238 0,-0.394 0,-0.394 0,0 0.569,0 0.927,0 0.356,0 0.088,-0.267 0.088,-0.267 0,0 -1.516,-2.012 -1.727,-2.223 z"
             style="fill:#ffffff"
             inkscape:connector-curvature="0" />
          <path
             id="path8321"
             d="m 6.42,4.893 1.781,2.153 c 0,0 0.146,0.172 0.299,0.018 0.211,-0.211 1.728,-2.223 1.728,-2.223 0,0 0.269,-0.267 -0.088,-0.267 -0.357,0 -0.927,0 -0.927,0 0,0 0,-0.155 0,-0.393 0,-0.732 0,-2.157 0,-2.703 0,0 0.004,-0.127 -0.162,-0.127 -0.165,0 -1.181,0 -1.413,0 -0.231,0 -0.191,0.152 -0.191,0.152 0,0.561 0,1.939 0,2.696 0,0.265 0,0.438 0,0.438 0,0 -0.71,0 -1.004,0 -0.294,0 -0.023,0.256 -0.023,0.256 z"
             style="fill:#ffffff"
             inkscape:connector-curvature="0" />
        </g>
      </g>
      <g
         id="g8327"
         style="fill:#ffffff" />
      <g
         id="g8329"
         style="fill:#ffffff" />
      <g
         id="g8331"
         style="fill:#ffffff" />
      <g
         id="g8333"
         style="fill:#ffffff" />
      <g
         id="g8335"
         style="fill:#ffffff" />
      <g
         id="g8337"
         style="fill:#ffffff" />
      <g
         id="g8339"
         style="fill:#ffffff" />
      <g
         id="g8341"
         style="fill:#ffffff" />
      <g
         id="g8343"
         style="fill:#ffffff" />
      <g
         id="g8345"
         style="fill:#ffffff" />
      <g
         id="g8347"
         style="fill:#ffffff" />
      <g
         id="g8349"
         style="fill:#ffffff" />
      <g
         id="g8351"
         style="fill:#ffffff" />
      <g
         id="g8353"
         style="fill:#ffffff" />
      <g
         id="g8355"
         style="fill:#ffffff" />
    </g>
    <text
       id="text8390"
       y="63.876606"
       x="157.99518"
       style="font-style:normal;font-weight:normal;font-size:3.52777767px;line-height:52.91666412px;font-family:sans-serif;text-align:center;letter-spacing:0px;word-spacing:0px;text-anchor:middle;fill:#ffffff;fill-opacity:1;stroke:none;stroke-width:0.26458332px;stroke-linecap:butt;stroke-linejoin:miter;stroke-opacity:1"
       xml:space="preserve"><tspan
         style="font-size:3.52777767px;text-align:center;text-anchor:middle;fill:#ffffff;stroke-width:0.26458332px"
         y="63.876606"
         x="157.99518"
         id="tspan8388"
         sodipodi:role="line">Network</tspan></text>
  </g>
</svg>
